<?xml version="1.0" encoding="UTF-8" standalone="no"?>
<!-- Created with Inkscape (http://www.inkscape.org/) -->

<svg
   width="120"
   height="80"
   viewBox="0 0 70.086449 54.768921"
   version="1.1"
   id="svg1"
   xml:space="preserve"
   inkscape:export-filename="alicelogo.svg"
   inkscape:export-xdpi="96"
   inkscape:export-ydpi="96"
   xmlns:inkscape="http://www.inkscape.org/namespaces/inkscape"
   xmlns:sodipodi="http://sodipodi.sourceforge.net/DTD/sodipodi-0.dtd"
   xmlns="http://www.w3.org/2000/svg"
   xmlns:svg="http://www.w3.org/2000/svg"><sodipodi:namedview
     id="namedview1"
     pagecolor="#ffffff"
     bordercolor="#000000"
     borderopacity="0.25"
     inkscape:showpageshadow="2"
     inkscape:pageopacity="0.0"
     inkscape:pagecheckerboard="0"
     inkscape:deskcolor="#d1d1d1"
     inkscape:document-units="mm" /><defs
     id="defs1" /><g
     inkscape:label="Layer 1"
     inkscape:groupmode="layer"
     id="layer1"
     transform="translate(-10.338579,-15.81843)"><g
       id="g1"
       transform="translate(-65.918618,-104.37115)"><path
         style="fill:#e1d6e4"
         d="m 110.92441,163.44896 c 0,-10.05417 0.0502,-11.50938 0.39688,-11.50938 0.33909,0 0.39687,0.7449 0.39687,5.11653 0,7.80463 -0.32234,17.90222 -0.57149,17.90222 -0.12224,0 -0.22226,-5.17921 -0.22226,-11.50937 z m -20.637501,-0.29321 c -1.834701,-0.49256 -3.807659,-1.39169 -5.534725,-2.52233 l -1.344442,-0.88015 v -2.31934 c 0,-1.27564 0.108923,-2.31935 0.24205,-2.31935 0.133127,0 0.671175,0.58459 1.195662,1.29908 1.569164,2.13763 4.064989,4.25783 6.212979,5.2779 1.673551,0.79477 2.320048,0.9537 4.239594,1.04223 2.775102,0.128 4.630628,-0.47428 6.482093,-2.104 2.44149,-2.14909 3.07073,-5.02009 1.63661,-7.46724 l -0.71671,-1.22297 h 1.70009 c 1.93965,0 2.01621,0.0959 2.02277,2.53256 0.0106,3.94533 -3.24608,7.43735 -8.10437,8.68996 -2.029531,0.52327 -6.070744,0.52008 -8.031601,-0.006 z m 28.310421,-0.36825 c 0,-0.14552 0.2769,-0.26458 0.61533,-0.26458 1.62885,0 2.29508,-2.12263 2.29508,-7.31216 v -3.27118 h 1.5875 1.5875 v 3.13889 c 0,5.06144 0.64136,7.20877 2.20898,7.39588 0.38579,0.046 0.70144,0.19487 0.70144,0.33072 0,0.14327 -1.88904,0.24701 -4.49792,0.24701 -2.82222,0 -4.49791,-0.0986 -4.49791,-0.26458 z M 76.440381,149.11736 c -0.411954,-0.41195 -0.108991,-0.55797 0.881945,-0.42505 0.823883,0.1105 1.058333,0.0548 1.058333,-0.25149 0,-0.21639 -0.374543,-0.50085 -0.832317,-0.63214 -1.814278,-0.52033 -1.56806,-1.95451 0.335547,-1.95451 0.665081,0 1.025937,0.1209 1.025937,0.34374 0,0.23706 -0.287419,0.31019 -0.926042,0.23564 -1.208533,-0.14109 -1.281603,0.56501 -0.09373,0.90569 1.78686,0.51246 1.571827,1.95451 -0.29145,1.95451 -0.540011,0 -1.061214,-0.0794 -1.158228,-0.17639 z m 4.850695,-1.5434 v -1.71979 h 1.470823 c 0.913174,0 1.408826,0.10031 1.307302,0.26458 -0.08994,0.14552 -0.573214,0.26458 -1.073948,0.26458 -0.734038,0 -0.910427,0.10253 -0.910427,0.52917 0,0.43004 0.176389,0.52917 0.941656,0.52917 0.560397,0 0.87545,0.10712 0.778136,0.26458 -0.08994,0.14552 -0.513683,0.26458 -0.941657,0.26458 -0.515287,0 -0.778135,0.13406 -0.778135,0.39688 0,0.27588 0.277547,0.39687 0.910427,0.39687 0.500734,0 0.984011,0.11907 1.073948,0.26459 0.101524,0.16427 -0.394128,0.26458 -1.307302,0.26458 h -1.470823 z m 5.027083,0 v -1.71979 h 1.27 c 0.6985,0 1.412875,0.14287 1.5875,0.3175 0.396435,0.39643 0.411943,1.3343 0.02841,1.71784 -0.209071,0.20907 -0.206494,0.44344 0.0093,0.84667 0.244445,0.45675 0.223454,0.55757 -0.116084,0.55757 -0.227969,0 -0.483021,-0.17859 -0.566784,-0.39687 C 88.446744,148.67859 88.093293,148.5 87.74506,148.5 c -0.386412,0 -0.633151,0.15466 -0.633151,0.39688 0,0.21828 -0.178593,0.39687 -0.396875,0.39687 -0.312072,0 -0.396875,-0.36748 -0.396875,-1.71979 z m 2.218818,-0.008 c 0.578034,-0.57803 0.240722,-1.18297 -0.659625,-1.18297 -0.674103,0 -0.765443,0.0947 -0.765443,0.79375 0,0.60757 0.119693,0.79375 0.510268,0.79375 0.280648,0 0.692307,-0.18204 0.9148,-0.40453 z m 3.072849,0.008 c 0,-1.35232 0.0848,-1.71979 0.396875,-1.71979 0.312073,0 0.396875,0.36747 0.396875,1.71979 0,1.35231 -0.0848,1.71979 -0.396875,1.71979 -0.312073,0 -0.396875,-0.36748 -0.396875,-1.71979 z m 3.175,0 c 0,-1.35232 0.0848,-1.71979 0.396875,-1.71979 0.269997,0 0.396875,0.27035 0.396875,0.84565 v 0.84565 l 0.872492,-0.84565 c 1.124788,-1.09019 1.885684,-1.13574 0.846106,-0.0507 l -0.761654,0.795 0.896347,0.92479 c 1.040559,1.07359 0.535721,1.28473 -0.560542,0.23444 -0.767846,-0.73564 -1.292749,-0.66385 -1.292749,0.17681 0,0.28245 -0.178593,0.51355 -0.396875,0.51355 -0.312072,0 -0.396875,-0.36748 -0.396875,-1.71979 z m 5.291664,0 c 0,-1.35232 0.0848,-1.71979 0.39688,-1.71979 0.31207,0 0.39687,0.36747 0.39687,1.71979 0,1.35231 -0.0848,1.71979 -0.39687,1.71979 -0.31207,0 -0.39688,-0.36748 -0.39688,-1.71979 z m 6.35,0 c 0,-0.97014 0.11533,-1.71979 0.26459,-1.71979 0.14925,0 0.26458,0.74965 0.26458,1.71979 0,0.97014 -0.11533,1.71979 -0.26458,1.71979 -0.14926,0 -0.26459,-0.74965 -0.26459,-1.71979 z m 3.175,0 v -1.71979 h 1.32292 c 0.7276,0 1.32292,0.11906 1.32292,0.26458 0,0.14552 -0.41672,0.26458 -0.92604,0.26458 -0.74966,0 -0.92605,0.1008 -0.92605,0.52917 0,0.43004 0.17639,0.52917 0.94166,0.52917 0.5604,0 0.87545,0.10712 0.77814,0.26458 -0.0899,0.14552 -0.51369,0.26458 -0.94166,0.26458 -0.65362,0 -0.77814,0.10585 -0.77814,0.66146 0,0.41158 -0.14993,0.66146 -0.39687,0.66146 -0.31207,0 -0.39688,-0.36748 -0.39688,-1.71979 z m 4.7625,0 v -1.71979 h 1.47083 c 0.91317,0 1.40882,0.10031 1.3073,0.26458 -0.0899,0.14552 -0.57321,0.26458 -1.07395,0.26458 -0.73404,0 -0.91043,0.10253 -0.91043,0.52917 0,0.43004 0.17639,0.52917 0.94166,0.52917 0.5604,0 0.87545,0.10712 0.77814,0.26458 -0.0899,0.14552 -0.51369,0.26458 -0.94166,0.26458 -0.51529,0 -0.77814,0.13406 -0.77814,0.39688 0,0.27588 0.27755,0.39687 0.91043,0.39687 0.50074,0 0.98401,0.11907 1.07395,0.26459 0.10152,0.16427 -0.39413,0.26458 -1.3073,0.26458 h -1.47083 z m 5.33779,1.10742 c -0.74174,-0.78954 -0.72952,-1.53175 0.0371,-2.25193 0.89314,-0.83906 2.36258,-0.78078 3.0726,0.12186 0.3016,0.38342 0.54837,0.84362 0.54837,1.02265 0,0.17903 -0.24677,0.63922 -0.54837,1.02265 -0.73247,0.93118 -2.27501,0.97323 -3.10968,0.0848 z m 2.5468,-0.2343 c 0.17462,-0.17462 0.3175,-0.56753 0.3175,-0.87312 0,-0.74879 -0.49094,-1.19063 -1.32292,-1.19063 -0.83198,0 -1.32292,0.44184 -1.32292,1.19063 0,0.74878 0.49094,1.19062 1.32292,1.19062 0.37835,0 0.83079,-0.14287 1.00542,-0.3175 z m 3.22791,-0.87312 c 0,-1.35232 0.0848,-1.71979 0.39688,-1.71979 0.30467,0 0.39687,0.33808 0.39687,1.4552 0,1.43402 0.0113,1.45521 0.77814,1.45521 0.42797,0 0.85172,0.11907 0.94166,0.26459 0.10078,0.16307 -0.35003,0.26458 -1.17501,0.26458 h -1.33854 z m 4.9098,1.13175 c -0.53944,-0.77015 -0.56048,-2.85154 -0.0288,-2.85154 0.27554,0 0.40549,0.38984 0.46302,1.38906 0.0777,1.34924 0.10273,1.38906 0.87372,1.38906 0.771,0 0.79605,-0.0398 0.87373,-1.38906 0.0575,-0.99922 0.18747,-1.38906 0.46302,-1.38906 0.27464,0 0.38304,0.32029 0.38304,1.13175 0,1.53208 -0.57808,2.30783 -1.71979,2.30783 -0.626,0 -1.02016,-0.17721 -1.30791,-0.58804 z m 6.12126,0.3896 c -0.34146,-0.60134 -1.00632,-3.03532 -0.86714,-3.1745 0.25287,-0.25287 0.58782,0.22946 0.95415,1.37397 l 0.33408,1.04374 0.4592,-1.17603 c 0.62844,-1.60949 1.12484,-1.62837 1.61503,-0.0614 l 0.39623,1.26664 0.48298,-1.25677 c 0.26563,-0.69123 0.64377,-1.25677 0.84031,-1.25677 0.48819,0 -0.73115,3.27827 -1.25782,3.38172 -0.23452,0.0461 -0.54328,-0.35724 -0.8102,-1.05833 l -0.43128,-1.13277 -0.46031,1.12448 c -0.41961,1.02507 -0.9689,1.43031 -1.25523,0.92604 z m 6.16686,0.0836 c 0,-0.0632 0.31322,-0.83708 0.69604,-1.71979 0.90103,-2.0776 1.37847,-2.09709 2.23184,-0.0911 0.3542,0.83259 0.68368,1.60649 0.73219,1.71979 0.0485,0.11329 -0.10032,0.20599 -0.33073,0.20599 -0.23041,0 -0.41892,-0.17859 -0.41892,-0.39687 0,-0.28482 -0.29084,-0.39688 -1.03003,-0.39688 -0.6715,0 -1.08303,0.13814 -1.18232,0.39688 -0.13479,0.35126 -0.69807,0.57882 -0.69807,0.28202 z m 2.3772,-1.4065 c -0.002,-0.10914 -0.12129,-0.37704 -0.26458,-0.59532 -0.23159,-0.35277 -0.28948,-0.35277 -0.52107,0 -0.3905,0.59487 -0.32522,0.79375 0.26053,0.79375 0.29105,0 0.52735,-0.0893 0.52512,-0.19843 z m -60.262202,-5.16299 c -1.426376,-1.51831 -1.854112,-5.08184 -0.870111,-7.24901 1.035603,-2.28082 3.563393,-4.12059 6.821569,-4.96487 3.025315,-0.78394 8.475963,-0.5157 12.714914,0.62573 l 1.11863,0.30122 v 2.23876 c 0,2.62631 -0.2825,2.83766 -1.4092,1.05424 -1.57709,-2.49634 -4.031174,-3.82787 -7.44786,-4.04103 -5.373563,-0.33524 -9.701572,2.75469 -9.701572,6.92632 0,2.20172 0.96431,3.59495 3.477381,5.0241 l 1.190625,0.67709 -2.665858,0.003 c -2.429461,0.003 -2.715753,-0.0499 -3.228518,-0.59574 z m 26.333022,0.40049 c -0.2152,-0.43669 0.13702,-22.82032 0.35909,-22.82032 0.1355,0 0.23664,4.9189 0.23664,11.50938 0,10.29113 -0.10605,12.30459 -0.59573,11.31094 z m 10.38531,-3.8665 c 0,-2.23571 -0.12045,-4.70006 -0.26766,-5.47633 -0.30044,-1.58421 -1.10642,-2.62957 -2.02742,-2.62957 -0.33843,0 -0.61533,-0.11906 -0.61533,-0.26458 0,-0.16602 1.67569,-0.26459 4.49791,-0.26459 2.60888,0 4.49792,0.10374 4.49792,0.24701 0,0.13586 -0.31565,0.28468 -0.70144,0.33073 -1.63921,0.19565 -2.20898,2.30801 -2.20898,8.18963 v 3.93263 h -1.5875 -1.5875 z"
         id="path7" /><path
         style="fill:#ddc4e4"
         d="m 110.92441,163.59687 c 0,-10.2069 0.11202,-12.29192 0.61587,-11.46316 0.22361,0.3678 -0.16105,22.82462 -0.39095,22.82462 -0.12371,0 -0.22492,-5.11266 -0.22492,-11.36146 z m -20.769792,-0.5104 c -1.787386,-0.51463 -4.594986,-1.87427 -5.88698,-2.8509 -0.842561,-0.6369 -0.859896,-0.69208 -0.859896,-2.73759 0,-1.14817 0.105914,-2.15304 0.235365,-2.23305 0.12945,-0.08 0.793598,0.6149 1.475883,1.54422 1.969401,2.68248 4.587717,4.63148 7.371529,5.48717 2.506041,0.77031 5.554047,0.61218 7.510981,-0.38967 4.01129,-2.05357 5.4064,-6.0877 3.19525,-9.23946 l -0.51046,-0.72761 h 1.61382 c 1.92179,0 1.99601,0.10363 1.98978,2.77813 -0.004,1.54943 -0.13185,2.08363 -0.78483,3.26903 -1.3871,2.51812 -4.45163,4.6129 -7.756694,5.30212 -2.052172,0.42796 -5.746435,0.3295 -7.593748,-0.20239 z m 28.442712,-0.29897 c 0,-0.14552 0.22838,-0.26458 0.50752,-0.26458 1.82137,0 2.21366,-1.02019 2.39086,-6.21771 l 0.14433,-4.23333 h 1.4552 1.45521 l 0.15625,4.10104 c 0.19364,5.08273 0.64002,6.31824 2.29115,6.34158 0.32742,0.005 0.59531,0.12748 0.59531,0.273 0,0.16601 -1.67569,0.26458 -4.49792,0.26458 -2.82222,0 -4.49791,-0.0986 -4.49791,-0.26458 z m -42.061092,-13.748 c -0.591743,-0.37423 -0.170153,-0.58818 0.589723,-0.29928 0.484335,0.18415 0.806345,0.1559 1.15853,-0.10162 0.463111,-0.33864 0.454468,-0.37012 -0.171059,-0.62298 -0.362348,-0.14648 -0.869875,-0.33284 -1.127837,-0.41414 -0.630128,-0.19859 -0.855498,-0.8703 -0.454223,-1.35381 0.385978,-0.46507 2.0001,-0.52706 2.27192,-0.0872 0.130828,0.21168 0.0052,0.25812 -0.406779,0.15039 -0.327833,-0.0857 -0.76317,-0.0918 -0.967415,-0.0134 -0.657411,0.25227 -0.395981,0.85812 0.466752,1.08168 1.066136,0.27626 1.510302,0.91971 1.032382,1.49557 -0.380793,0.45882 -1.775168,0.55489 -2.391994,0.1648 z m 4.754838,-1.46554 v -1.71979 l 1.389062,0.0445 c 1.142733,0.0366 1.213113,0.0629 0.396875,0.14827 -0.839438,0.0878 -0.992187,0.2007 -0.992187,0.7333 0,0.5326 0.152749,0.64549 0.992187,0.7333 l 0.992188,0.10379 -0.992188,0.0445 c -0.863576,0.0387 -0.992187,0.12825 -0.992187,0.69073 0,0.56801 0.136126,0.6585 1.124479,0.74752 0.97531,0.0879 0.922662,0.10741 -0.396875,0.14751 l -1.521354,0.0462 z m 5.291667,0 v -1.71979 h 1.137708 c 0.62574,0 1.280583,0.14287 1.455208,0.3175 0.410743,0.41074 0.407246,1.339 -0.0066,1.75285 -0.25575,0.25575 -0.255277,0.43431 0.0022,0.84667 0.26054,0.41719 0.2587,0.52256 -0.0091,0.52256 -0.18451,0 -0.484184,-0.23812 -0.665942,-0.52917 -0.181759,-0.29104 -0.567587,-0.52916 -0.857395,-0.52916 -0.350536,0 -0.526925,0.17714 -0.526925,0.52916 0,0.29105 -0.119062,0.52917 -0.264583,0.52917 -0.149252,0 -0.264583,-0.74965 -0.264583,-1.71979 z m 2.222272,-0.21394 c 0.232548,-0.38204 0.187726,-0.5554 -0.222321,-0.85989 -0.935749,-0.69486 -1.470785,-0.49033 -1.470785,0.56224 0,0.86537 0.05812,0.93667 0.700918,0.85989 0.385505,-0.046 0.831989,-0.29905 0.992188,-0.56224 z m 3.069394,0.21394 c 0,-0.97014 0.115332,-1.71979 0.264584,-1.71979 0.149252,0 0.264583,0.74965 0.264583,1.71979 0,0.97014 -0.115331,1.71979 -0.264583,1.71979 -0.149252,0 -0.264584,-0.74965 -0.264584,-1.71979 z m 3.175001,0 c 0,-0.97014 0.115331,-1.71979 0.264583,-1.71979 0.145521,0 0.264583,0.38054 0.264583,0.84565 v 0.84565 l 0.872492,-0.84565 c 1.124788,-1.09019 1.885684,-1.13574 0.846106,-0.0507 l -0.761654,0.795 0.896347,0.92479 c 1.040559,1.07359 0.535721,1.28473 -0.560542,0.23444 -0.767846,-0.73564 -1.292749,-0.66385 -1.292749,0.17681 0,0.28245 -0.119062,0.51355 -0.264583,0.51355 -0.149252,0 -0.264583,-0.74965 -0.264583,-1.71979 z m 5.29167,0 c 0,-0.97014 0.11533,-1.71979 0.26458,-1.71979 0.14925,0 0.26458,0.74965 0.26458,1.71979 0,0.97014 -0.11533,1.71979 -0.26458,1.71979 -0.14925,0 -0.26458,-0.74965 -0.26458,-1.71979 z m 6.08541,0 c 0,-0.97014 0.11533,-1.71979 0.26459,-1.71979 0.14925,0 0.26458,0.74965 0.26458,1.71979 0,0.97014 -0.11533,1.71979 -0.26458,1.71979 -0.14926,0 -0.26459,-0.74965 -0.26459,-1.71979 z m 3.175,0 v -1.71979 l 1.38907,0.0375 c 1.35952,0.0368 1.36655,0.041 0.33073,0.19844 -0.83601,0.12709 -1.0761,0.28595 -1.14289,0.7562 -0.0743,0.52346 0.0374,0.59952 0.92605,0.63015 l 1.01059,0.0348 -0.92605,0.1636 c -0.76431,0.13504 -0.94066,0.29068 -1.00976,0.89122 -0.1629,1.41578 -0.57774,0.70336 -0.57774,-0.99219 z m 4.7625,0 v -1.71979 l 1.38907,0.0445 c 1.14273,0.0366 1.21311,0.0629 0.39687,0.14827 -0.83944,0.0878 -0.99219,0.2007 -0.99219,0.7333 0,0.5326 0.15275,0.64549 0.99219,0.7333 l 0.99219,0.10379 -0.99219,0.0445 c -0.86357,0.0387 -0.99219,0.12825 -0.99219,0.69073 0,0.56801 0.13613,0.6585 1.12448,0.74752 0.97531,0.0879 0.92266,0.10741 -0.39687,0.14751 l -1.52136,0.0462 z m 5.31087,1.02265 c -0.3016,-0.38343 -0.54837,-0.84362 -0.54837,-1.02265 0,-0.17903 0.24677,-0.63923 0.54837,-1.02265 0.41928,-0.53303 0.78335,-0.69714 1.5465,-0.69714 1.20049,0 1.87388,0.63454 1.87388,1.76576 0,1.68103 -2.34061,2.34938 -3.42038,0.97668 z m 2.30318,0.0207 c 0.79592,-0.55748 0.76062,-1.57951 -0.0734,-2.126 -0.61274,-0.40148 -0.71018,-0.40148 -1.32292,0 -0.83404,0.54649 -0.86934,1.56852 -0.0734,2.126 0.32342,0.22653 0.65412,0.41188 0.73488,0.41188 0.0808,0 0.41146,-0.18535 0.73488,-0.41188 z m 3.49845,-1.04333 c 0,-2.12511 0.47321,-2.28642 0.58211,-0.19844 l 0.0794,1.52136 1.05834,0.16089 c 1.03582,0.15747 1.02879,0.16169 -0.33073,0.19843 l -1.38907,0.0375 z m 5.08,1.40229 c -0.3823,-0.3823 -0.42873,-3.12208 -0.0529,-3.12208 0.14552,0 0.26458,0.58939 0.26458,1.30977 0,1.45117 0.51339,2.03389 1.38223,1.5689 0.35323,-0.18904 0.46985,-0.57752 0.46985,-1.56507 0,-0.72248 0.11907,-1.3136 0.26459,-1.3136 0.37582,0 0.32938,2.73978 -0.0529,3.12208 -0.17462,0.17463 -0.68659,0.3175 -1.13771,0.3175 -0.45111,0 -0.96308,-0.14287 -1.13771,-0.3175 z m 5.61835,-1.07156 c -0.25117,-0.76399 -0.5116,-1.53789 -0.57873,-1.71979 -0.0671,-0.18191 -1.1e-4,-0.33073 0.14894,-0.33073 0.14906,0 0.48379,0.55715 0.74386,1.23812 l 0.47284,1.23813 0.5121,-1.24783 c 0.28166,-0.68631 0.63097,-1.20822 0.77626,-1.15979 0.14529,0.0484 0.46719,0.60734 0.71534,1.24203 0.48283,1.2349 0.55524,1.21292 1.0489,-0.31848 0.17592,-0.5457 0.42968,-0.99218 0.56391,-0.99218 0.33777,0 0.27887,0.44585 -0.26214,1.98437 -0.61277,1.74258 -1.16933,1.84015 -1.60572,0.28151 -0.18447,-0.65886 -0.41857,-1.14654 -0.52022,-1.08372 -0.10165,0.0628 -0.34396,0.59644 -0.53847,1.18582 -0.19452,0.58938 -0.50363,1.0716 -0.68693,1.0716 -0.18329,0 -0.53876,-0.62508 -0.78994,-1.38906 z m 6.49957,1.24922 c 0,-0.39329 1.63134,-3.29974 1.85208,-3.29974 0.34052,0 1.93781,3.17944 1.7082,3.40021 -0.0982,0.0944 -0.35864,-0.0962 -0.57876,-0.42365 -0.51775,-0.77012 -1.79042,-0.8086 -2.18777,-0.0661 -0.25479,0.47609 -0.79375,0.74045 -0.79375,0.38933 z m 2.38125,-1.42602 c 0,-0.42255 -0.3135,-1.07997 -0.515,-1.07997 -0.1066,0 -0.32943,0.29765 -0.49519,0.66145 -0.27734,0.60871 -0.24908,0.66146 0.35441,0.66146 0.36068,0 0.65578,-0.10932 0.65578,-0.24294 z m -60.407288,-5.37945 c -0.878864,-1.18382 -1.241089,-2.39525 -1.238045,-4.14053 0.0065,-3.71933 3.198559,-6.93081 7.881793,-7.92969 3.086359,-0.65829 9.86291,-0.16726 12.4165,0.89969 l 0.86579,0.36175 v 2.13017 c 0,1.60364 -0.0876,2.13017 -0.35441,2.13017 -0.19492,0 -0.48992,-0.29744 -0.65556,-0.66098 -0.16564,-0.36354 -0.78037,-1.18085 -1.36606,-1.81625 -2.841726,-3.08291 -8.835224,-3.74887 -12.725217,-1.41395 -2.641327,1.58543 -4.064704,4.40581 -3.424112,6.78479 0.371054,1.37799 1.841444,3.03466 3.426415,3.8605 l 1.208318,0.62958 -2.698514,0.0123 -2.698514,0.0123 z m 26.540618,-10.63387 c 0,-7.50694 0.0922,-11.52499 0.26459,-11.52499 0.17228,0 0.26458,3.96355 0.26458,11.36147 0,7.28891 -0.0948,11.42008 -0.26458,11.52499 -0.17485,0.10806 -0.26459,-3.74552 -0.26459,-11.36147 z m 10.45574,11.16303 c -0.061,-0.1819 -0.14946,-2.47385 -0.19646,-5.09323 -0.10349,-5.76736 -0.44371,-6.74687 -2.34342,-6.74687 -0.27914,0 -0.50752,-0.11906 -0.50752,-0.26458 0,-0.16602 1.67569,-0.26459 4.49791,-0.26459 2.82223,0 4.49792,0.0986 4.49792,0.26459 0,0.14552 -0.2752,0.26458 -0.61157,0.26458 -1.73955,0 -2.29885,1.93432 -2.29885,7.95052 v 4.22031 h -1.46351 c -0.93522,0 -1.50358,-0.11938 -1.5745,-0.33073 z"
         id="path6" /><path
         style="fill:#d8afe3"
         d="m 110.96024,167.61615 c 0.0197,-4.03821 0.11728,-9.24719 0.21682,-11.57552 0.13609,-3.18348 0.19282,-1.36262 0.22875,7.34218 0.0312,7.57247 -0.0437,11.57552 -0.21682,11.57552 -0.17089,0 -0.25189,-2.59989 -0.22875,-7.34218 z m -20.408747,-4.44044 c -1.79721,-0.49699 -5.125588,-2.05081 -6.2815,-2.93247 -0.844854,-0.6444 -0.862251,-0.69979 -0.862251,-2.74526 0,-1.14817 0.09699,-2.14753 0.215541,-2.22079 0.118548,-0.0733 0.743626,0.59386 1.389063,1.48251 1.491872,2.05404 3.867729,4.03911 6.068313,5.0702 1.42593,0.66812 2.1333,0.82397 4.139798,0.91207 2.894876,0.1271 4.368481,-0.2806 6.297963,-1.74248 2.61751,-1.98315 3.46153,-5.00351 2.13106,-7.626 -0.3632,-0.71589 -0.66085,-1.33732 -0.66146,-1.38096 -6.1e-4,-0.0436 0.6835,-0.0436 1.52024,0 l 1.52136,0.0794 0.23304,1.4669 c 0.60636,3.81683 -1.96508,7.36281 -6.646448,9.16534 -2.273503,0.8754 -6.760313,1.10882 -9.064719,0.47159 z m 28.178127,-0.38821 c 0.0899,-0.14552 0.38143,-0.26458 0.64776,-0.26458 1.52458,0 2.02923,-1.59043 2.29183,-7.22278 l 0.15789,-3.38631 1.36167,0.079 1.36168,0.079 0.14433,4.23333 c 0.16443,4.82313 0.47629,5.85235 1.85695,6.12848 1.97058,0.39412 0.71701,0.61839 -3.45649,0.61839 -2.95205,0 -4.4722,-0.0921 -4.36562,-0.26458 z M 76.593073,149.11797 c -0.182808,-0.0737 -0.264879,-0.24321 -0.18238,-0.3767 0.08875,-0.14361 0.363579,-0.1284 0.6731,0.0373 0.569549,0.30481 1.561449,0.10797 1.561449,-0.30986 0,-0.14314 -0.446484,-0.44615 -0.992187,-0.67337 -1.188044,-0.49465 -1.437332,-0.8274 -1.096709,-1.46386 0.288047,-0.53822 1.936102,-0.67397 2.238674,-0.1844 0.124928,0.20214 -0.0621,0.23948 -0.603684,0.12053 -0.547852,-0.12033 -0.886225,-0.05 -1.121086,0.23298 -0.288165,0.34722 -0.161439,0.48033 0.883882,0.92841 1.230764,0.52756 1.485649,0.96442 0.902777,1.54729 -0.315622,0.31562 -1.628613,0.39782 -2.263836,0.14172 z m 4.698003,-1.54401 v -1.71979 l 1.389062,0.0375 c 1.359524,0.0368 1.366557,0.041 0.330729,0.19844 -0.836002,0.12709 -1.076094,0.28595 -1.142881,0.7562 -0.07434,0.52346 0.03744,0.59952 0.926042,0.63015 l 1.01059,0.0348 -0.926042,0.1636 c -0.695117,0.12281 -0.926042,0.29557 -0.926042,0.69278 0,0.42726 0.229289,0.55973 1.190625,0.68786 l 1.190625,0.1587 -1.521354,0.0397 -1.521354,0.0397 z m 5.291667,0 v -1.71979 h 1.039434 c 1.591816,0 2.478838,1.28281 1.467432,2.1222 -0.360247,0.29898 -0.355847,0.38763 0.04101,0.82615 0.244506,0.27018 0.325494,0.49123 0.179973,0.49123 -0.145521,0 -0.480083,-0.23812 -0.743472,-0.52917 -0.263389,-0.29104 -0.698561,-0.52916 -0.967049,-0.52916 -0.311771,0 -0.48816,0.1912 -0.48816,0.52916 0,0.29105 -0.119062,0.52917 -0.264583,0.52917 -0.149252,0 -0.264583,-0.74965 -0.264583,-1.71979 z m 2.222272,-0.21394 c 0.232548,-0.38204 0.187726,-0.5554 -0.222321,-0.85989 -0.935749,-0.69486 -1.470785,-0.49033 -1.470785,0.56224 0,0.86537 0.05812,0.93667 0.700918,0.85989 0.385505,-0.046 0.831989,-0.29905 0.992188,-0.56224 z m 3.069394,0.21394 c 0,-0.97014 0.115332,-1.71979 0.264584,-1.71979 0.149252,0 0.264583,0.74965 0.264583,1.71979 0,0.97014 -0.115331,1.71979 -0.264583,1.71979 -0.149252,0 -0.264584,-0.74965 -0.264584,-1.71979 z m 3.175001,0 c 0,-0.97014 0.115331,-1.71979 0.264583,-1.71979 0.145521,0 0.264583,0.44088 0.264583,0.97973 v 0.97974 l 1.003343,-0.97974 c 1.18654,-1.15862 1.813021,-1.33056 0.730282,-0.20042 l -0.746629,0.77931 0.708001,0.84141 c 0.931712,1.10728 0.596337,1.41591 -0.367006,0.33774 -0.776448,-0.869 -1.327991,-0.77532 -1.327991,0.22556 0,0.26194 -0.119062,0.47625 -0.264583,0.47625 -0.149252,0 -0.264583,-0.74965 -0.264583,-1.71979 z m 5.29167,0 c 0,-0.97014 0.11533,-1.71979 0.26458,-1.71979 0.14925,0 0.26458,0.74965 0.26458,1.71979 0,0.97014 -0.11533,1.71979 -0.26458,1.71979 -0.14925,0 -0.26458,-0.74965 -0.26458,-1.71979 z m 6.08541,0 c 0,-0.97014 0.11533,-1.71979 0.26459,-1.71979 0.14925,0 0.26458,0.74965 0.26458,1.71979 0,0.97014 -0.11533,1.71979 -0.26458,1.71979 -0.14926,0 -0.26459,-0.74965 -0.26459,-1.71979 z m 3.175,0 v -1.71979 l 1.38907,0.0462 c 1.32801,0.0442 1.33964,0.0507 0.26458,0.14751 -0.97988,0.0882 -1.12448,0.18233 -1.12448,0.73155 0,0.53348 0.15238,0.64621 0.99219,0.73406 l 0.99219,0.10379 -0.99219,0.0445 c -0.91616,0.0411 -0.99219,0.1053 -0.99219,0.83823 0,0.43656 -0.11906,0.79375 -0.26458,0.79375 -0.14926,0 -0.26459,-0.74965 -0.26459,-1.71979 z m 4.7625,0 v -1.71979 l 1.38907,0.0375 c 1.35952,0.0368 1.36655,0.041 0.33073,0.19844 -0.83601,0.12709 -1.0761,0.28595 -1.14289,0.7562 -0.0743,0.52346 0.0374,0.59952 0.92605,0.63015 l 1.01059,0.0348 -0.92605,0.1636 c -0.69511,0.12281 -0.92604,0.29557 -0.92604,0.69278 0,0.42726 0.22929,0.55973 1.19063,0.68786 l 1.19062,0.1587 -1.52135,0.0397 -1.52136,0.0397 z m 5.61513,1.30791 c -1.32183,-0.92584 -0.44432,-3.0277 1.26404,-3.0277 1.10075,0 1.85208,0.69766 1.85208,1.71979 0,1.02212 -0.75133,1.71979 -1.85208,1.71979 -0.3718,0 -0.94062,-0.18535 -1.26404,-0.41188 z m 1.99892,-0.26458 c 1.31237,-0.91922 0.15857,-2.82513 -1.36062,-2.24753 -0.57283,0.21778 -0.69718,0.43291 -0.69718,1.20618 0,0.72868 0.13438,0.99512 0.59532,1.1804 0.80986,0.32552 0.79753,0.32669 1.46248,-0.13905 z m 3.49845,-1.04333 c 0,-0.97014 0.11534,-1.71979 0.26459,-1.71979 0.1467,0 0.26458,0.70048 0.26458,1.57228 v 1.57229 l 1.12448,0.10128 c 1.07506,0.0968 1.06344,0.10331 -0.26458,0.14751 l -1.38907,0.0462 z m 5.08,1.40229 c -0.3823,-0.3823 -0.42873,-3.12208 -0.0529,-3.12208 0.14552,0 0.26458,0.58073 0.26458,1.29052 0,1.4347 0.44479,2.03089 1.31022,1.75621 0.4585,-0.14552 0.54186,-0.39312 0.54186,-1.60935 0,-0.79056 0.11907,-1.43738 0.26459,-1.43738 0.37582,0 0.32938,2.73978 -0.0529,3.12208 -0.17462,0.17463 -0.68659,0.3175 -1.13771,0.3175 -0.45111,0 -0.96308,-0.14287 -1.13771,-0.3175 z m 5.61835,-1.07156 c -0.25117,-0.76399 -0.5116,-1.53789 -0.57873,-1.71979 -0.0671,-0.18191 1.7e-4,-0.33073 0.14956,-0.33073 0.1494,0 0.46936,0.59531 0.71103,1.32291 0.24167,0.72761 0.4798,1.32292 0.52917,1.32292 0.0494,0 0.28951,-0.60137 0.53364,-1.33639 0.24413,-0.73501 0.57329,-1.29324 0.73146,-1.24052 0.15818,0.0527 0.48977,0.68386 0.73688,1.40253 l 0.4493,1.30667 0.2936,-0.73927 c 0.16148,-0.4066 0.36699,-1.03168 0.45669,-1.38906 0.14288,-0.56927 0.63489,-0.9401 0.63489,-0.47852 0,0.58402 -1.18449,3.27036 -1.409,3.19552 -0.15021,-0.0501 -0.45502,-0.58996 -0.67736,-1.19975 -0.22234,-0.60979 -0.48323,-1.10871 -0.57977,-1.10871 -0.0965,0 -0.32553,0.53578 -0.50887,1.19062 -0.18335,0.65485 -0.48691,1.19063 -0.67458,1.19063 -0.18768,0 -0.54673,-0.62508 -0.79791,-1.38906 z m 6.49957,1.24922 c 0,-0.49673 1.66985,-3.31639 1.91553,-3.2345 0.4097,0.13657 1.83658,3.37434 1.48706,3.37434 -0.15242,0 -0.3394,-0.23812 -0.41551,-0.52917 -0.10788,-0.41254 -0.36089,-0.52916 -1.14802,-0.52916 -0.77728,0 -1.0483,0.12179 -1.1776,0.52916 -0.14711,0.4635 -0.66146,0.76624 -0.66146,0.38933 z m 2.33311,-1.84454 c -0.16576,-0.3638 -0.38222,-0.66145 -0.48103,-0.66145 -0.0988,0 -0.31526,0.29765 -0.48102,0.66145 -0.28449,0.62438 -0.25752,0.66146 0.48102,0.66146 0.73855,0 0.76552,-0.0371 0.48103,-0.66146 z m -60.093456,-4.57372 c -0.235277,-0.25998 -0.684996,-1.05418 -0.999374,-1.76488 -0.462827,-1.0463 -0.547265,-1.63229 -0.443725,-3.07939 0.277796,-3.88256 3.344921,-6.73848 8.232221,-7.66534 2.866156,-0.54355 8.000595,-0.2176 11.217574,0.71214 l 1.38907,0.40145 v 2.23019 c 0,2.32897 -0.2411,2.77066 -0.78957,1.44652 -0.44712,-1.07943 -2.67394,-3.10333 -4.180042,-3.79912 -1.053355,-0.48663 -1.722864,-0.5766 -4.290808,-0.5766 -2.779754,0 -3.179903,0.0641 -4.630209,0.74193 -2.977659,1.39163 -4.46666,3.42944 -4.484413,6.13724 -0.01361,2.07548 0.68343,3.20786 2.84328,4.61911 l 1.636719,1.06943 h -2.536473 c -2.099432,0 -2.610181,-0.0814 -2.96425,-0.47268 z m 26.274926,-11.02108 c 0,-7.50694 0.0922,-11.52499 0.26459,-11.52499 0.17228,0 0.26458,3.96355 0.26458,11.36147 0,7.28891 -0.0948,11.42008 -0.26458,11.52499 -0.17485,0.10806 -0.26459,-3.74552 -0.26459,-11.36147 z m 10.4167,6.41278 c -0.2878,-5.70118 -0.50913,-6.52393 -1.87416,-6.96678 -0.46418,-0.15059 -0.92911,-0.35895 -1.03318,-0.46302 -0.10407,-0.10407 1.86172,-0.18922 4.36841,-0.18922 4.1987,0 5.45887,0.22361 3.48497,0.61839 -1.44794,0.28959 -1.70387,1.24121 -1.86165,6.92224 l -0.13963,5.02708 -1.34351,0.0784 -1.34352,0.0784 z"
         id="path5" /><path
         style="fill:#d191e2"
         d="m 111.12568,165.36736 c 0.0379,-5.27523 0.10327,-10.48429 0.14519,-11.57569 0.0419,-1.09141 0.10018,3.22461 0.12946,9.59114 0.0293,6.36654 -0.0361,11.5756 -0.14519,11.57569 -0.10914,1e-4 -0.1674,-4.31592 -0.12946,-9.59114 z m -20.574187,-2.21161 c -1.776846,-0.47703 -3.944228,-1.45147 -5.622396,-2.52778 l -1.256771,-0.80605 v -2.22138 c 0,-2.11883 0.293036,-2.853 0.667646,-1.67271 0.09578,0.30177 1.086066,1.47137 2.200643,2.59912 2.363843,2.39179 4.977183,3.84421 7.701865,4.28049 6.47133,1.03618 11.93765,-4.4458 9.407,-9.43395 -0.3632,-0.71589 -0.66085,-1.33138 -0.66146,-1.36776 -6.1e-4,-0.0364 0.57962,-0.0661 1.28941,-0.0661 1.70458,0 1.99604,0.38298 1.98351,2.60629 -0.029,5.15038 -5.29035,9.05773 -12.137572,9.01406 -1.164167,-0.007 -2.771511,-0.18931 -3.571875,-0.40418 z m 28.824987,-0.47321 c 0.50129,-0.18111 1.12833,-0.6198 1.39342,-0.97486 0.56337,-0.75457 0.99741,-3.98814 1.00042,-7.45299 l 0.002,-2.31511 h 1.29627 1.29628 l 0.15714,3.37344 c 0.24872,5.33947 0.76195,7.20218 1.98767,7.21395 0.23211,0.002 0.60061,0.11947 0.81889,0.26053 0.26402,0.17063 -1.15306,0.2511 -4.23334,0.2404 -4.01732,-0.0139 -4.50956,-0.0597 -3.71876,-0.34536 z M 76.637019,148.99058 c -0.131206,-0.2123 0.01643,-0.25202 0.492527,-0.13253 0.373943,0.0939 0.867952,0.0985 1.097797,0.0103 0.75686,-0.29043 0.436268,-0.87215 -0.640434,-1.16208 -0.854364,-0.23006 -1.058333,-0.40504 -1.058333,-0.90793 0,-0.34263 0.188331,-0.69522 0.418514,-0.78355 0.668352,-0.25648 1.651149,-0.18613 1.84793,0.13227 0.124928,0.20214 -0.0621,0.23948 -0.603684,0.12053 -0.528665,-0.11611 -0.88584,-0.0505 -1.094697,0.20119 -0.372853,0.44926 -0.01432,0.81119 1.056399,1.06643 0.863267,0.20579 1.131506,0.81688 0.594355,1.35403 -0.473859,0.47386 -1.839616,0.53945 -2.110374,0.10136 z m 4.91864,-1.41662 v -1.71979 l 1.256771,0.0462 1.256771,0.0462 -1.124479,0.10128 c -0.979875,0.0882 -1.12448,0.18233 -1.12448,0.73155 0,0.53348 0.15238,0.64621 0.992188,0.73406 l 0.992188,0.10379 -0.992188,0.0445 c -0.863576,0.0387 -0.992188,0.12825 -0.992188,0.69073 0,0.56801 0.136127,0.6585 1.12448,0.74752 l 1.124479,0.10128 -1.256771,0.0462 -1.256771,0.0462 z m 5.027084,0 v -1.71979 h 1.039434 c 1.604734,0 2.371104,1.04958 1.443603,1.97708 -0.39345,0.39345 -0.390195,0.46847 0.04101,0.94494 0.257613,0.28466 0.349324,0.51756 0.203803,0.51756 -0.145521,0 -0.480083,-0.23812 -0.743472,-0.52917 -0.263389,-0.29104 -0.698561,-0.52916 -0.967049,-0.52916 -0.311771,0 -0.48816,0.1912 -0.48816,0.52916 0,0.29105 -0.119062,0.52917 -0.264583,0.52917 -0.149252,0 -0.264583,-0.74965 -0.264583,-1.71979 z m 1.962735,0.23627 c 0.926685,-0.3556 0.275104,-1.69148 -0.825027,-1.69148 -0.519087,0 -0.608542,0.13613 -0.608542,0.92604 0,0.9551 0.392794,1.16483 1.433569,0.76544 z m 3.328931,-0.23627 c 0,-0.97014 0.115332,-1.71979 0.264584,-1.71979 0.149252,0 0.264583,0.74965 0.264583,1.71979 0,0.97014 -0.115331,1.71979 -0.264583,1.71979 -0.149252,0 -0.264584,-0.74965 -0.264584,-1.71979 z m 3.175001,0 c 0,-0.97014 0.115331,-1.71979 0.264583,-1.71979 0.145521,0 0.264583,0.44088 0.264583,0.97973 v 0.97974 l 1.003343,-0.97974 c 1.188924,-1.16095 1.811976,-1.32947 0.726525,-0.1965 l -0.750384,0.78323 0.714348,0.93656 c 0.392892,0.51511 0.597334,0.93656 0.454317,0.93656 -0.143018,0 -0.517885,-0.36212 -0.83304,-0.80471 -0.457454,-0.64244 -0.647833,-0.74262 -0.944058,-0.49677 -0.204078,0.16937 -0.371051,0.53149 -0.371051,0.80471 0,0.27322 -0.119062,0.49677 -0.264583,0.49677 -0.149252,0 -0.264583,-0.74965 -0.264583,-1.71979 z m 5.29167,0 c 0,-0.97014 0.11533,-1.71979 0.26458,-1.71979 0.14925,0 0.26458,0.74965 0.26458,1.71979 0,0.97014 -0.11533,1.71979 -0.26458,1.71979 -0.14925,0 -0.26458,-0.74965 -0.26458,-1.71979 z m 6.08541,0 c 0,-0.97014 0.11533,-1.71979 0.26459,-1.71979 0.14925,0 0.26458,0.74965 0.26458,1.71979 0,0.97014 -0.11533,1.71979 -0.26458,1.71979 -0.14926,0 -0.26459,-0.74965 -0.26459,-1.71979 z m 3.175,0 v -1.71979 l 1.38907,0.0462 c 1.32801,0.0442 1.33964,0.0507 0.26458,0.14751 -0.97988,0.0882 -1.12448,0.18233 -1.12448,0.73155 0,0.53348 0.15238,0.64621 0.99219,0.73406 l 0.99219,0.10379 -0.99219,0.0445 c -0.91616,0.0411 -0.99219,0.1053 -0.99219,0.83823 0,0.43656 -0.11906,0.79375 -0.26458,0.79375 -0.14926,0 -0.26459,-0.74965 -0.26459,-1.71979 z m 5.02709,0 v -1.71979 l 1.25677,0.0462 1.25677,0.0462 -1.12448,0.10128 c -0.97988,0.0882 -1.12448,0.18233 -1.12448,0.73155 0,0.53348 0.15238,0.64621 0.99219,0.73406 l 0.99219,0.10379 -0.99219,0.0445 c -0.86358,0.0387 -0.99219,0.12825 -0.99219,0.69073 0,0.56801 0.13613,0.6585 1.12448,0.74752 l 1.12448,0.10128 -1.25677,0.0462 -1.25677,0.0462 z m 5.35054,1.30791 c -0.41083,-0.28775 -0.58804,-0.68191 -0.58804,-1.30791 0,-1.56601 2.03608,-2.32954 3.175,-1.19063 1.58966,1.58966 -0.7115,3.81217 -2.58696,2.49854 z m 2.17259,-0.20407 c 1.01768,-0.74415 0.33747,-2.55905 -0.95912,-2.55905 -0.57976,0 -1.53693,0.90628 -1.53693,1.45521 0,0.54893 0.95717,1.45521 1.53693,1.45521 0.26323,0 0.69483,-0.15812 0.95912,-0.35137 z m 3.32478,-1.10384 c 0,-0.97014 0.11534,-1.71979 0.26459,-1.71979 0.1467,0 0.26458,0.70048 0.26458,1.57228 v 1.57229 l 1.12448,0.10128 c 1.07506,0.0968 1.06344,0.10331 -0.26458,0.14751 l -1.38907,0.0462 z m 5.17828,1.30402 c -0.28175,-0.28175 -0.40514,-0.85747 -0.38277,-1.78594 l 0.033,-1.37017 0.20698,1.4244 c 0.19264,1.32569 0.53889,1.87479 1.18221,1.87479 0.67249,0 1.05358,-0.59648 1.21076,-1.89505 l 0.16995,-1.40414 0.0373,1.37017 c 0.0416,1.53123 -0.39017,2.20171 -1.41796,2.20171 -0.34301,0 -0.81076,-0.1871 -1.03943,-0.41577 z m 5.56742,-0.97329 c -0.25489,-0.76399 -0.52468,-1.53789 -0.59953,-1.71979 -0.0748,-0.18191 -0.0306,-0.33073 0.0983,-0.33073 0.1289,0 0.45755,0.62065 0.73033,1.37922 l 0.49596,1.37923 0.46272,-1.0485 c 0.2545,-0.57667 0.47156,-1.19732 0.48235,-1.37922 0.0437,-0.73621 0.50845,-0.25187 1.01557,1.05833 0.44659,1.15381 0.57124,1.29944 0.73595,0.85989 0.61914,-1.65214 0.93494,-2.31614 1.04786,-2.20322 0.2349,0.2349 -0.98157,3.41998 -1.26953,3.324 -0.15664,-0.0522 -0.48698,-0.68294 -0.73409,-1.40161 l -0.44929,-1.30667 -0.32087,0.79375 c -0.17647,0.43657 -0.42566,1.06165 -0.55375,1.38907 -0.3579,0.91489 -0.63649,0.72125 -1.14195,-0.79375 z m 7.23073,-0.25407 c 0.41023,-0.90371 0.85299,-1.67883 0.98391,-1.72247 0.13091,-0.0436 0.62026,0.69577 1.08742,1.64313 0.46716,0.94736 0.73946,1.72247 0.6051,1.72247 -0.13435,0 -0.31986,-0.23812 -0.41223,-0.52917 -0.12979,-0.40893 -0.40032,-0.52916 -1.19063,-0.52916 -0.7903,0 -1.06083,0.12023 -1.19062,0.52916 -0.0924,0.29105 -0.27165,0.52917 -0.39839,0.52917 -0.12674,0 0.10521,-0.73941 0.51544,-1.64313 z m 1.47045,-0.47354 c -0.22576,-0.43656 -0.45529,-0.79375 -0.51008,-0.79375 -0.0548,0 -0.22413,0.35719 -0.37632,0.79375 -0.26703,0.76603 -0.24922,0.79375 0.51008,0.79375 h 0.78678 z m -59.914057,-4.48384 c -2.173693,-2.1737 -2.052482,-6.46306 0.256773,-9.08651 2.307324,-2.62126 6.223941,-3.8156 11.635407,-3.54813 2.517738,0.12445 6.919487,0.93103 7.331977,1.34352 0.0543,0.0543 0.064,1.08817 0.0214,2.29739 l -0.0774,2.19858 -0.68943,-1.04123 c -1.9268,-2.91 -4.156625,-4.13525 -7.826719,-4.30065 -3.613222,-0.16283 -5.743088,0.5393 -7.741259,2.55198 -2.900389,2.92145 -2.84484,6.49005 0.133454,8.57343 2.308342,1.61474 2.32324,1.50908 -0.214063,1.5183 -1.948265,0.007 -2.396723,-0.0732 -2.8302,-0.50668 z M 111.23801,131.7651 c -0.0321,-7.5733 0.0425,-11.57552 0.21557,-11.57552 0.29693,0 0.30258,6.96954 0.0137,16.93334 -0.16606,5.72796 -0.18412,5.30594 -0.22927,-5.35782 z m 10.53231,8.33438 c -0.003,-4.19818 -0.39557,-7.43662 -1.00042,-8.24675 -0.26509,-0.35506 -0.89213,-0.79374 -1.39342,-0.97485 -0.78875,-0.28496 -0.28814,-0.32959 3.71876,-0.33151 3.43755,-0.002 4.45983,0.0683 3.96875,0.27145 -0.3638,0.15052 -0.84005,0.36181 -1.05833,0.46952 -0.9012,0.44471 -1.16109,1.69415 -1.42026,6.82776 l -0.25712,5.09323 h -1.27798 -1.27797 z"
         id="path4" /><path
         style="fill:#c661e1"
         d="m 111.31041,163.58125 c 0,-6.33016 0.0345,-8.91977 0.0767,-5.75469 0.0422,3.16508 0.0422,8.3443 0,11.50938 -0.0422,3.16508 -0.0767,0.57547 -0.0767,-5.75469 z m -20.494334,-0.40108 c -1.978185,-0.48529 -3.24898,-1.03801 -5.357813,-2.33036 l -1.785937,-1.09447 0.01242,-2.25423 0.01242,-2.25423 0.697955,0.92604 c 0.383875,0.50932 1.540894,1.75948 2.571153,2.77812 3.944699,3.90024 8.823974,5.04927 13.018228,3.0657 1.764138,-0.8343 3.592948,-2.70664 4.077348,-4.17437 0.46353,-1.40452 0.20003,-3.89227 -0.51466,-4.85894 l -0.59645,-0.80675 1.53943,0.0799 1.53944,0.0799 0.0776,1.90882 c 0.0605,1.48936 -0.0472,2.1988 -0.49012,3.22839 -0.64848,1.50743 -2.75742,3.64015 -4.4569,4.50716 -2.832851,1.44522 -7.252823,1.95769 -10.344072,1.19934 z m 28.839584,-0.60382 c 1.5385,-0.74813 1.89155,-1.85225 2.05353,-6.42212 l 0.14001,-3.95006 h 1.28448 1.28448 l 0.002,2.18281 c 0.003,3.34357 0.44489,6.57664 1.00042,7.3207 0.26509,0.35506 0.89213,0.79375 1.39342,0.97486 0.79135,0.2859 0.31879,0.33026 -3.58647,0.33671 -4.41928,0.007 -4.48173,-4.6e-4 -3.57188,-0.4429 z M 76.831792,149.05864 c -0.231899,-0.14694 -0.0017,-0.2155 0.65263,-0.19438 0.756753,0.0244 1.034017,-0.0808 1.102938,-0.41841 0.06534,-0.32011 -0.156166,-0.51535 -0.763135,-0.67263 -0.470359,-0.12189 -0.977161,-0.41496 -1.126227,-0.65128 -0.571615,-0.9062 0.955485,-1.67617 1.947244,-0.98181 0.310683,0.21752 0.267587,0.2415 -0.198437,0.11041 -0.777048,-0.21857 -1.653646,0.069 -1.653646,0.54246 0,0.2057 0.327422,0.45222 0.727604,0.54782 0.958283,0.22892 1.389063,0.58968 1.389063,1.16327 0,0.71276 -1.286545,1.05609 -2.078034,0.55455 z m 4.723867,-1.48468 v -1.71979 l 1.256771,0.0462 1.256771,0.0462 -1.124479,0.10128 c -0.979875,0.0882 -1.12448,0.18233 -1.12448,0.73155 0,0.53348 0.15238,0.64621 0.992188,0.73406 l 0.992188,0.10379 -0.992188,0.0445 c -0.863576,0.0387 -0.992188,0.12825 -0.992188,0.69073 0,0.56801 0.136127,0.6585 1.12448,0.74752 l 1.124479,0.10128 -1.256771,0.0462 -1.256771,0.0462 z m 5.063115,0.0661 -0.03603,-1.78593 h 1.04333 c 0.762273,0 1.148907,0.15073 1.435249,0.55954 0.392577,0.56048 0.307168,1.26878 -0.193309,1.6031 -0.171914,0.11484 -0.14183,0.32894 0.08455,0.60171 0.193281,0.23289 0.283172,0.49168 0.199757,0.5751 -0.08341,0.0834 -0.307615,-0.0981 -0.498223,-0.40327 -0.489012,-0.78304 -1.731159,-0.75642 -1.884629,0.0404 -0.06306,0.32742 -0.130877,-0.20836 -0.150694,-1.19063 z m 2.302222,-0.43309 c 0.10384,-0.73441 -0.323373,-1.07851 -1.346066,-1.08421 -0.658267,-0.004 -0.727604,0.0857 -0.727604,0.93796 0,0.92676 0.01607,0.94069 0.992187,0.8599 0.815597,-0.0675 1.008081,-0.19452 1.081483,-0.71365 z m 3.040234,0.36695 c 0.0012,-1.01865 0.049,-1.40295 0.106272,-0.854 0.05728,0.54895 0.05631,1.38239 -0.0021,1.85209 -0.05845,0.46969 -0.105312,0.0206 -0.104138,-0.99809 z m 3.143013,0 c 0.01893,-1.02758 0.08032,-1.41039 0.137907,-0.8599 0.05708,0.54571 0.180876,0.99219 0.275097,0.99219 0.09422,0 0.642129,-0.44648 1.217575,-0.99219 1.013483,-0.9611 1.02834,-0.96604 0.474176,-0.15759 -0.722529,1.05406 -0.71651,1.18645 0.08833,1.94255 0.363228,0.34124 0.606246,0.6746 0.54004,0.7408 -0.06621,0.0662 -0.433507,-0.25176 -0.816226,-0.7066 -0.876288,-1.04141 -1.112464,-1.03648 -1.577271,0.0329 -0.365874,0.84178 -0.373027,0.82088 -0.339625,-0.99219 z m 5.323657,0 c 0.001,-1.01865 0.049,-1.40295 0.10627,-0.854 0.0573,0.54895 0.0563,1.38239 -0.002,1.85209 -0.0584,0.46969 -0.10531,0.0206 -0.10413,-0.99809 z m 5.99859,0 c 0,-0.97014 0.11533,-1.71979 0.26459,-1.71979 0.14925,0 0.26458,0.74965 0.26458,1.71979 0,0.97014 -0.11533,1.71979 -0.26458,1.71979 -0.14926,0 -0.26459,-0.74965 -0.26459,-1.71979 z m 3.48193,0.0661 -0.0423,-1.78593 1.25677,0.0462 1.25677,0.0462 -1.12448,0.10128 c -0.97988,0.0882 -1.12448,0.18233 -1.12448,0.73155 0,0.53348 0.15238,0.64621 0.99219,0.73406 l 0.99219,0.10379 -0.97543,0.0445 c -0.89076,0.0406 -0.98469,0.11912 -1.08213,0.90438 -0.0587,0.47294 -0.12577,0.0562 -0.14906,-0.92605 z m 4.72016,-0.0661 v -1.71979 l 1.25677,0.0462 1.25677,0.0462 -1.12448,0.10128 c -0.97988,0.0882 -1.12448,0.18233 -1.12448,0.73155 0,0.53348 0.15238,0.64621 0.99219,0.73406 l 0.99219,0.10379 -0.99219,0.0445 c -0.86358,0.0387 -0.99219,0.12825 -0.99219,0.69073 0,0.56801 0.13613,0.6585 1.12448,0.74752 l 1.12448,0.10128 -1.25677,0.0462 -1.25677,0.0462 z m 5.29166,1.19062 c -1.63352,-1.63352 0.9019,-3.94919 2.59595,-2.37094 0.73964,0.68908 0.73964,1.67156 0,2.36064 -0.73717,0.68678 -1.9148,0.69145 -2.59595,0.0103 z M 122.30149,148.5 c 0.29105,-0.29104 0.52917,-0.70776 0.52917,-0.92604 0,-0.54542 -0.95569,-1.45521 -1.52863,-1.45521 -0.7692,0 -1.64637,0.77532 -1.64637,1.45521 0,0.67989 0.87717,1.45521 1.64637,1.45521 0.25866,0 0.70842,-0.23813 0.99946,-0.52917 z m 3.49057,-0.99219 0.051,-1.78594 0.0935,1.63841 0.0935,1.6384 0.97996,0.10306 0.97996,0.10306 -1.12448,0.0445 -1.12448,0.0445 z m 4.88482,1.30209 c -0.29672,-0.32787 -0.42588,-0.90364 -0.40063,-1.78594 l 0.0373,-1.30209 0.1659,1.32292 c 0.20586,1.64159 0.41571,1.98438 1.2148,1.98438 0.7991,0 1.00895,-0.34279 1.21481,-1.98438 l 0.1659,-1.32292 0.0373,1.34806 c 0.0277,1.00339 -0.0865,1.46001 -0.4466,1.78594 -0.63478,0.57446 -1.44413,0.55575 -1.98868,-0.046 z m 5.88471,-0.22783 c -0.75727,-1.93488 -0.99068,-2.7279 -0.80293,-2.7279 0.11249,0 0.41095,0.65484 0.66324,1.4552 0.2523,0.80037 0.50608,1.45521 0.56397,1.45521 0.0579,0 0.31167,-0.65484 0.56396,-1.45521 0.2523,-0.80036 0.54995,-1.4552 0.66146,-1.4552 0.11151,0 0.40748,0.64947 0.6577,1.44328 0.25023,0.79381 0.53764,1.39219 0.63869,1.32973 0.10105,-0.0625 0.33545,-0.65546 0.5209,-1.31781 0.18544,-0.66234 0.42926,-1.26117 0.54182,-1.33073 0.11256,-0.0696 -0.0471,0.64788 -0.35482,1.59431 -0.30771,0.94644 -0.64231,1.7208 -0.74354,1.7208 -0.10124,0 -0.39814,-0.59531 -0.65978,-1.32292 -0.26164,-0.7276 -0.55578,-1.32291 -0.65365,-1.32291 -0.0979,0 -0.3288,0.53885 -0.51319,1.19744 -0.41786,1.49245 -0.71026,1.6912 -1.08383,0.73671 z m 6.96583,-1.00811 c 0.46644,-0.94589 0.91968,-1.71979 1.00721,-1.71979 0.25174,0 1.69121,3.15134 1.51841,3.32415 -0.0854,0.0854 -0.23374,-0.0918 -0.32959,-0.3938 -0.24961,-0.78645 -2.23852,-0.80268 -2.44321,-0.0199 -0.0761,0.29105 -0.24244,0.52917 -0.36963,0.52917 -0.12719,0 0.15037,-0.77391 0.61681,-1.71979 z m 1.79282,0.27703 c 0,-0.29778 -0.63269,-1.46766 -0.79375,-1.46766 -0.16105,0 -0.79375,1.16988 -0.79375,1.46766 0,0.0659 0.35719,0.11984 0.79375,0.11984 0.43657,0 0.79375,-0.0539 0.79375,-0.11984 z m -61.006812,-6.2963 c -0.621848,-1.12779 -0.766617,-1.71255 -0.769654,-3.10886 -0.01458,-6.70492 8.064318,-10.08167 18.345546,-7.66793 l 2.42051,0.56827 v 2.22692 c 0,1.2248 -0.0395,2.22691 -0.0877,2.22691 -0.0482,0 -0.46847,-0.58759 -0.93383,-1.30576 -1.01362,-1.56428 -2.53111,-2.73275 -4.522023,-3.48196 -2.162553,-0.81379 -6.395633,-0.64569 -8.52044,0.33837 -2.957261,1.36959 -4.633001,3.90857 -4.403804,6.67238 0.143569,1.73125 1.010762,3.01273 2.811614,4.1548 l 1.207736,0.76592 h -2.391 -2.391001 z m 26.996872,-9.85573 c 6e-5,-6.2574 0.0347,-8.77942 0.0769,-5.6045 0.0422,3.17492 0.0422,8.29461 -1.1e-4,11.37708 -0.0423,3.08248 -0.0769,0.48481 -0.0768,-5.77258 z m 10.40957,6.52918 c -0.14213,-5.41627 -0.43757,-6.45308 -2.06421,-7.24408 -0.90985,-0.44244 -0.8474,-0.45018 3.57188,-0.44289 3.90526,0.006 4.37782,0.0508 3.58647,0.33671 -0.50129,0.18111 -1.12833,0.61979 -1.39342,0.97485 -0.59854,0.80167 -0.99767,4.03909 -1.00042,8.11446 l -0.002,2.97656 h -1.28728 -1.28728 z"
         id="path3" /><path
         style="fill:#bf40e1"
         d="m 111.3103,163.44896 c 6e-5,-6.2574 0.0347,-8.77942 0.0769,-5.6045 0.0422,3.17492 0.0422,8.29461 -1.1e-4,11.37709 -0.0423,3.08247 -0.0769,0.4848 -0.0768,-5.77259 z m -20.698082,-0.38261 c -1.752695,-0.47587 -5.316649,-2.1431 -6.488037,-3.03513 -0.401137,-0.30547 -0.462277,-0.69917 -0.396875,-2.55562 l 0.07731,-2.19452 0.695084,1.04123 c 0.973379,1.45811 3.029448,3.47446 4.620332,4.53107 4.366655,2.90018 9.509069,2.86601 12.791298,-0.085 0.75158,-0.67574 1.62199,-1.71827 1.93423,-2.31673 0.77231,-1.48022 0.76455,-3.62102 -0.0186,-5.12301 l -0.58627,-1.12448 h 1.3163 c 1.29883,0 1.31865,0.0125 1.49282,0.9409 0.59272,3.15943 -0.96614,6.30405 -4.12128,8.31373 -2.969699,1.89155 -7.762663,2.57242 -11.316364,1.60755 z m 29.205862,-0.52018 c 1.51177,-0.68653 1.74584,-1.46752 1.89033,-6.30711 l 0.12046,-4.03489 h 1.29465 1.29464 l 0.002,2.97656 c 0.003,5.18719 0.45926,6.71096 2.24743,7.50027 0.69974,0.30888 0.27672,0.35091 -3.57188,0.35492 l -4.36562,0.005 z M 76.831792,149.06509 c -0.236948,-0.15441 -0.01299,-0.22241 0.661458,-0.20083 0.900838,0.0288 1.017143,-0.0378 0.997756,-0.57141 -0.01546,-0.42565 0.06092,-0.52117 0.258637,-0.32345 0.70305,0.70305 -1.014548,1.68433 -1.917851,1.09569 z m 4.723867,-1.49113 v -1.71979 l 1.256771,0.0462 1.256771,0.0462 -1.124479,0.10128 c -0.979875,0.0882 -1.12448,0.18233 -1.12448,0.73155 0,0.53348 0.15238,0.64621 0.992188,0.73406 l 0.992188,0.10379 -0.992188,0.0445 c -0.863576,0.0387 -0.992188,0.12825 -0.992188,0.69073 0,0.56801 0.136127,0.6585 1.12448,0.74752 l 1.124479,0.10128 -1.256771,0.0462 -1.256771,0.0462 z m 5.063115,0.0661 -0.03603,-1.78593 0.992187,0.0423 c 0.97687,0.0417 0.978912,0.044 0.132292,0.14905 -0.782629,0.0971 -0.859896,0.18842 -0.859896,1.016 0,0.85228 0.05472,0.90927 0.873125,0.90927 0.480219,0 1.030003,-0.14882 1.221743,-0.33073 0.287476,-0.27272 0.291777,-0.23622 0.02452,0.20814 -0.246899,0.41052 -0.532704,0.51452 -1.199883,0.43663 -0.747662,-0.0873 -0.893066,-0.0113 -0.993906,0.51946 -0.06497,0.34194 -0.134336,-0.18196 -0.154153,-1.16423 z m 5.342456,-0.0661 c 0.0012,-1.01865 0.049,-1.40295 0.106272,-0.854 0.05728,0.54895 0.05631,1.38239 -0.0021,1.85209 -0.05845,0.46969 -0.105312,0.0206 -0.104138,-0.99809 z m 3.170436,0 c 0.0065,-1.17714 0.04778,-1.42833 0.113345,-0.68929 l 0.103153,1.1628 1.237154,-1.1628 c 0.680436,-0.63954 0.888059,-0.77528 0.461387,-0.30165 l -0.775768,0.86114 0.91059,0.99094 0.910591,0.99094 -0.981346,-0.90129 c -0.806562,-0.74076 -1.051134,-0.84337 -1.373178,-0.5761 -0.215508,0.17886 -0.442298,0.58444 -0.503977,0.90129 -0.06168,0.31686 -0.107557,-0.25734 -0.101951,-1.27598 z m 5.296234,0 c 0.001,-1.01865 0.049,-1.40295 0.10627,-0.854 0.0573,0.54895 0.0563,1.38239 -0.002,1.85209 -0.0584,0.46969 -0.10531,0.0206 -0.10413,-0.99809 z m 9.48052,0.0661 -0.0423,-1.78593 1.12448,0.0445 1.12448,0.0445 -0.99219,0.10379 c -0.83944,0.0878 -0.99219,0.2007 -0.99219,0.7333 0,0.5326 0.15275,0.64549 0.99219,0.7333 l 0.99219,0.10379 -0.97543,0.0445 c -0.89076,0.0406 -0.98469,0.11912 -1.08213,0.90438 -0.0587,0.47294 -0.12577,0.0562 -0.14906,-0.92605 z m 4.72016,-0.0661 v -1.71979 l 1.25677,0.0462 1.25677,0.0462 -1.12448,0.10128 c -0.97988,0.0882 -1.12448,0.18233 -1.12448,0.73155 0,0.53348 0.15238,0.64621 0.99219,0.73406 l 0.99219,0.10379 -0.99219,0.0445 c -0.86358,0.0387 -0.99219,0.12825 -0.99219,0.69073 0,0.56801 0.13613,0.6585 1.12448,0.74752 l 1.12448,0.10128 -1.25677,0.0462 -1.25677,0.0462 z m 6.28385,1.54456 c 0.1819,-0.0734 0.47956,-0.0734 0.66146,0 0.1819,0.0734 0.0331,0.13345 -0.33073,0.13345 -0.3638,0 -0.51263,-0.06 -0.33073,-0.13345 z m 4.87963,-1.61071 0.051,-1.78594 0.0935,1.63841 0.0935,1.6384 0.97996,0.10306 0.97996,0.10306 -1.12448,0.0445 -1.12448,0.0445 z m 5.72024,1.6052 c 0.191,-0.0764 0.4192,-0.067 0.50712,0.0209 0.0879,0.0879 -0.0684,0.15045 -0.34727,0.13896 -0.30822,-0.0127 -0.37092,-0.0754 -0.15985,-0.15985 z m 5.25144,-0.20092 c -0.0991,-0.25829 -0.0608,-0.37291 0.0929,-0.27793 0.14385,0.0889 0.26155,0.0157 0.26155,-0.16264 0,-0.17836 0.0705,-0.25385 0.15655,-0.16775 0.0861,0.0861 0.0443,0.3571 -0.0929,0.60222 -0.23157,0.4138 -0.26148,0.41424 -0.41809,0.006 z m 2.47109,0.11708 c 0,-0.14552 0.12609,-0.26459 0.2802,-0.26459 0.15411,0 0.20661,0.11907 0.11667,0.26459 -0.0899,0.14552 -0.21602,0.26458 -0.2802,0.26458 -0.0642,0 -0.11667,-0.11906 -0.11667,-0.26458 z m -19.34834,-0.46302 c -0.3291,-0.41965 -0.31974,-0.42901 0.0999,-0.0999 0.44073,0.34564 0.58089,0.56292 0.36313,0.56292 -0.055,0 -0.26331,-0.20836 -0.46303,-0.46302 z m 2.15042,0.36312 c 0,-0.0549 0.20836,-0.2633 0.46302,-0.46302 0.41965,-0.32911 0.429,-0.31975 0.0999,0.0999 -0.34565,0.44073 -0.56292,0.58088 -0.56292,0.36312 z m 21.33557,-0.82615 c 0.0558,-0.14552 0.57515,-0.26458 1.15401,-0.26458 0.57887,0 1.09818,0.11906 1.15402,0.26458 0.0589,0.15349 -0.42569,0.26459 -1.15402,0.26459 -0.72832,0 -1.21291,-0.1111 -1.15401,-0.26459 z m -13.05781,-1.05833 c 0.002,-0.7276 0.0534,-0.99386 0.11418,-0.59167 0.0608,0.40218 0.0592,0.99749 -0.004,1.32291 -0.0628,0.32542 -0.11256,-0.004 -0.11057,-0.73124 z m 2.64583,0 c 0.002,-0.7276 0.0534,-0.99386 0.11419,-0.59167 0.0608,0.40218 0.0592,0.99749 -0.004,1.32291 -0.0628,0.32542 -0.11256,-0.004 -0.11058,-0.73124 z m -13.54853,0.50712 c 0.0127,-0.30822 0.0754,-0.37092 0.15985,-0.15985 0.0764,0.19099 0.067,0.4192 -0.0209,0.50712 -0.0879,0.0879 -0.15045,-0.0684 -0.13896,-0.34727 z m 3.43958,0 c 0.0127,-0.30822 0.0754,-0.37092 0.15985,-0.15985 0.0764,0.19099 0.067,0.4192 -0.0209,0.50712 -0.0879,0.0879 -0.15045,-0.0684 -0.13896,-0.34727 z m -45.31425,-0.0264 c 0.190996,-0.0764 0.419199,-0.067 0.507118,0.0209 0.08792,0.0879 -0.06835,0.15045 -0.347266,0.13896 -0.308225,-0.0127 -0.370919,-0.0754 -0.159852,-0.15985 z m -0.919869,-0.4985 c -0.08752,-0.22807 -0.05401,-0.51977 0.07445,-0.64823 0.135037,-0.13504 0.23357,0.0399 0.23357,0.41466 0,0.75113 -0.08475,0.81539 -0.30802,0.23357 z m 61.611659,-0.27683 c -0.18935,-0.20544 -0.25904,-0.51144 -0.15487,-0.68001 0.12247,-0.19816 0.26954,-0.0899 0.41611,0.30634 0.27695,0.74865 0.19388,0.86746 -0.26124,0.37367 z m -49.380378,-0.28929 c -0.143585,-0.37708 -0.113194,-0.40747 0.148112,-0.14811 0.180821,0.17947 0.262115,0.39297 0.180654,0.47443 -0.08146,0.0815 -0.229407,-0.0654 -0.328766,-0.32632 z m 30.806948,0.35172 c 0,-0.055 0.20836,-0.26331 0.46302,-0.46303 0.41965,-0.3291 0.429,-0.31974 0.0999,0.0999 -0.34565,0.44073 -0.56292,0.58089 -0.56292,0.36313 z m 2.61208,-0.36313 c -0.3291,-0.41964 -0.31974,-0.429 0.0999,-0.0999 0.25466,0.19972 0.46302,0.40808 0.46302,0.46303 0,0.21776 -0.21727,0.0776 -0.56292,-0.36313 z m 21.90308,-0.21039 c 0.0806,-0.21004 0.25313,-0.31601 0.3834,-0.2355 0.32811,0.20279 0.29791,0.2997 -0.14654,0.47025 -0.25575,0.0981 -0.33461,0.02 -0.23686,-0.23475 z m -66.319328,-0.12034 c -0.615753,-0.1972 -0.621403,-0.21366 -0.08176,-0.23821 0.318833,-0.0145 0.653282,0.0927 0.743219,0.23821 0.08994,0.14552 0.126729,0.25272 0.08176,0.23821 -0.04497,-0.0145 -0.379417,-0.1217 -0.743219,-0.23821 z m 43.060938,-0.17523 c 0.1819,-0.0734 0.47956,-0.0734 0.66146,0 0.1819,0.0734 0.0331,0.13345 -0.33073,0.13345 -0.3638,0 -0.51263,-0.06 -0.33073,-0.13345 z m -35.998381,-3.47247 c -1.31769,-1.45603 -1.668897,-4.97429 -0.70191,-7.03147 1.505555,-3.20293 5.009639,-5.08216 10.007296,-5.36687 2.675826,-0.15245 6.890805,0.34184 8.899765,1.04367 l 1.05833,0.36973 0.0768,2.22309 0.0768,2.22309 -0.76306,-1.20076 c -1.03676,-1.63146 -2.75409,-3.04559 -4.528926,-3.72932 -2.105933,-0.81128 -5.897561,-0.8018 -8.033189,0.0201 -3.286047,1.26463 -5.25477,3.69165 -5.25477,6.47802 0,0.78533 0.17939,1.77477 0.398645,2.19876 0.386335,0.74709 1.93051,2.25535 2.9674,2.89838 0.419777,0.26033 0.135516,0.31788 -1.633594,0.33073 -1.733693,0.0126 -2.22332,-0.0745 -2.569597,-0.45714 z M 111.3103,131.69896 c 6e-5,-6.2574 0.0347,-8.77942 0.0769,-5.6045 0.0422,3.17492 0.0422,8.29461 -1.1e-4,11.37708 -0.0423,3.08248 -0.0769,0.48481 -0.0768,-5.77258 z m 10.39948,6.41614 c -0.13325,-5.69303 -0.3179,-6.38615 -1.8917,-7.10085 l -1.08846,-0.4943 4.36562,0.005 c 3.8486,0.004 4.27162,0.046 3.57188,0.35491 -1.8517,0.81736 -2.24498,2.26875 -2.24743,8.29403 l -0.002,3.77031 h -1.29768 -1.29768 z"
         id="path2" /><path
         style="fill:#b823e0"
         d="m 111.3103,163.44896 c 6e-5,-6.2574 0.0347,-8.77942 0.0769,-5.6045 0.0422,3.17492 0.0422,8.29461 -1.1e-4,11.37709 -0.0423,3.08247 -0.0769,0.4848 -0.0768,-5.77259 z m -19.978931,-0.26311 c -1.983974,-0.39559 -4.69235,-1.55763 -6.451868,-2.76821 l -1.207175,-0.83056 v -2.13017 -2.13018 l 1.210074,1.60976 c 2.86646,3.81323 6.895285,6.04602 11.093051,6.14781 l 1.5875,0.0385 -1.322916,0.20605 c -1.844609,0.28731 -2.905605,0.2564 -4.908666,-0.14299 z m 6.578848,-0.31451 c 0.190996,-0.0764 0.419199,-0.067 0.507118,0.0209 0.08792,0.0879 -0.06835,0.15045 -0.347266,0.13897 -0.308224,-0.0127 -0.370919,-0.0754 -0.159852,-0.15986 z m 21.732373,-0.16492 c 1.66316,-0.57528 1.98419,-1.54982 2.08684,-6.33507 l 0.0894,-4.16718 h 1.2714 1.2714 l 0.0994,4.03489 c 0.11678,4.74267 0.48478,5.88657 2.07386,6.44648 0.80374,0.28319 0.34949,0.32697 -3.43959,0.33148 -3.71159,0.004 -4.22885,-0.0421 -3.45265,-0.3106 z m -19.43381,-0.62839 c 1.48475,-0.79255 2.78346,-1.98353 3.50924,-3.21814 0.96292,-1.63802 1.02433,-4.16335 0.13771,-5.66354 l -0.58639,-0.99218 h 1.29778 1.29778 l 0.18037,1.2028 c 0.49803,3.32109 -1.45848,6.70525 -4.8785,8.4383 -1.44327,0.73136 -2.266982,0.9315 -0.95799,0.23276 z M 77.5373,149.11301 c 0.190996,-0.0764 0.419199,-0.067 0.507118,0.0209 0.08792,0.0879 -0.06835,0.15045 -0.347266,0.13896 -0.308225,-0.0127 -0.370919,-0.0754 -0.159852,-0.15985 z m 4.018359,-1.53905 v -1.71979 l 1.124479,0.0445 1.12448,0.0445 -0.992188,0.10379 c -0.839438,0.0878 -0.992188,0.2007 -0.992188,0.7333 0,0.5326 0.15275,0.64549 0.992188,0.7333 l 0.992188,0.10379 -0.992188,0.0445 c -0.863576,0.0387 -0.992188,0.12825 -0.992188,0.69073 0,0.56801 0.136127,0.6585 1.12448,0.74752 l 1.124479,0.10128 -1.256771,0.0462 -1.256771,0.0462 z m 33.072921,0 v -1.71979 l 1.12448,0.0445 1.12448,0.0445 -0.99219,0.10379 c -0.83944,0.0878 -0.99219,0.2007 -0.99219,0.7333 0,0.5326 0.15275,0.64549 0.99219,0.7333 l 0.99219,0.10379 -0.99219,0.0445 c -0.86358,0.0387 -0.99219,0.12825 -0.99219,0.69073 0,0.56801 0.13613,0.6585 1.12448,0.74752 l 1.12448,0.10128 -1.25677,0.0462 -1.25677,0.0462 z m 11.57552,1.53306 c 0.32742,-0.0631 0.8632,-0.0631 1.19062,0 0.32743,0.0631 0.0595,0.11467 -0.59531,0.11467 -0.65484,0 -0.92273,-0.0516 -0.59531,-0.11467 z m 5.3082,0.006 c 0.191,-0.0764 0.4192,-0.067 0.50712,0.0209 0.0879,0.0879 -0.0684,0.15045 -0.34727,0.13896 -0.30822,-0.0127 -0.37092,-0.0754 -0.15985,-0.15985 z m -44.334245,-1.05998 c 0.254662,-0.0666 0.67138,-0.0666 0.926042,0 0.254661,0.0666 0.0463,0.121 -0.463021,0.121 -0.509323,0 -0.717682,-0.0544 -0.463021,-0.121 z m 56.753125,-0.004 c 0.32742,-0.0631 0.86321,-0.0631 1.19063,0 0.32742,0.0631 0.0595,0.11466 -0.59532,0.11466 -0.65484,0 -0.92273,-0.0516 -0.59531,-0.11466 z m -33.599,-0.52957 c 0.32912,-0.0633 0.80537,-0.0609 1.05834,0.005 0.25296,0.0662 -0.0163,0.118 -0.5984,0.11507 -0.58208,-0.003 -0.78906,-0.0571 -0.45994,-0.12041 z M 77.5373,145.93801 c 0.190996,-0.0764 0.419199,-0.067 0.507118,0.0209 0.08792,0.0879 -0.06835,0.15045 -0.347266,0.13896 -0.308225,-0.0127 -0.370919,-0.0754 -0.159852,-0.15985 z m 9.645791,-0.003 c 0.257431,-0.0671 0.614618,-0.0627 0.79375,0.01 0.179131,0.0725 -0.03149,0.12736 -0.468057,0.12197 -0.436562,-0.005 -0.583124,-0.0647 -0.325693,-0.13177 z m 23.146009,-0.003 c 0.32742,-0.0631 0.8632,-0.0631 1.19062,0 0.32742,0.0631 0.0595,0.11467 -0.59531,0.11467 -0.65484,0 -0.92273,-0.0516 -0.59531,-0.11467 z m -25.539956,-3.71587 c -1.895561,-2.72189 -1.353167,-6.80518 1.210991,-9.11667 1.751432,-1.57885 4.90621,-2.89373 6.782193,-2.82674 0.705687,0.0252 0.665482,0.0579 -0.307394,0.2499 -1.696036,0.33474 -3.32132,1.13868 -4.554675,2.25294 -1.551805,1.40196 -2.214308,2.80464 -2.240755,4.74421 -0.02726,1.99952 0.674969,3.22591 2.582875,4.51077 l 1.356009,0.91319 h -2.161265 c -2.058514,0 -2.185354,-0.0346 -2.667979,-0.7276 z m 26.517896,-7.60678 c 1e-4,-4.65666 0.0361,-6.5244 0.08,-4.15052 0.0439,2.37388 0.0438,6.18388 -2e-4,8.46667 -0.044,2.28278 -0.0799,0.34052 -0.0798,-4.31615 z m 10.41976,3.37344 c -0.0775,-4.42967 -0.14483,-5.06011 -0.629,-5.88698 -0.34037,-0.5813 -0.8821,-1.0436 -1.45521,-1.24183 -0.7762,-0.26849 -0.25894,-0.31502 3.45265,-0.3106 3.78908,0.005 4.24333,0.0483 3.43959,0.33148 -1.66918,0.58813 -1.96892,1.6338 -2.07542,7.24022 l -0.0917,4.82865 h -1.27707 -1.27706 z m -18.06064,-3.20674 c -0.64048,-1.23855 -2.96535,-3.13578 -4.585319,-3.74189 -0.824573,-0.30851 -2.396392,-0.66496 -3.492932,-0.7921 -1.827573,-0.21191 -1.762208,-0.21991 0.784417,-0.096 2.667688,0.12981 5.958334,0.655 7.299974,1.16509 0.59569,0.22648 0.63753,0.37305 0.63753,2.23331 0,1.09501 -0.0565,1.99093 -0.1255,1.99093 -0.069,0 -0.3022,-0.34171 -0.51817,-0.75935 z"
         id="path1" /></g></g></svg>
