<?xml version="1.0" encoding="UTF-8" standalone="no"?>
<!-- Created with Inkscape (http://www.inkscape.org/) -->

<svg
   width="30.605906mm"
   height="17.170429mm"
   viewBox="0 0 30.605906 17.170429"
   version="1.1"
   id="svg1"
   xml:space="preserve"
   xmlns="http://www.w3.org/2000/svg"
   xmlns:svg="http://www.w3.org/2000/svg"><defs
     id="defs1" /><g
     id="layer1"
     transform="translate(-7.3626749,-7.0972302)"><g
       id="g1"
       transform="translate(-82.764489,-85.327991)"><path
         style="fill:#f4d7e3"
         d="m 92.422874,108.91405 c -1.856694,-0.95387 -2.652006,-2.23332 -2.146641,-3.45337 0.37823,-0.91313 1.251293,-1.39528 2.526519,-1.39528 0.799579,0 0.900627,0.0878 1.056447,0.91843 0.212131,1.13076 1.013668,1.7274 2.320613,1.7274 0.768247,0 1.091813,-0.15025 1.42779,-0.66302 0.844227,-1.28845 -0.160703,-2.49035 -3.494907,-4.17992 -2.729447,-1.38312 -4.026394,-3.713395 -3.12452,-5.613953 0.871803,-1.837188 3.093585,-2.822671 6.461782,-2.866157 2.113769,-0.02729 2.814243,0.140181 4.532483,1.083642 0.0918,0.05039 0.23958,-0.198088 0.32845,-0.552177 0.2172,-0.865397 0.6347,-0.992198 3.83039,-1.163352 2.17758,-0.116626 2.78617,-0.07089 2.97251,0.223413 0.64742,1.022518 -0.15144,1.823194 -1.827,1.831157 l -1.23787,0.0059 0.66145,0.508919 c 0.57382,0.441488 0.65455,0.694869 0.60933,1.912346 -0.0287,0.771885 -0.22037,2.196974 -0.426,3.166872 l -0.37386,1.76343 0.95516,0.20716 c 0.52534,0.11393 1.0403,0.21335 1.14436,0.22093 0.37557,0.0274 5.33403,-6.904355 6.09392,-8.519027 0.49495,-1.051729 0.93768,-1.653109 1.2163,-1.652171 0.99748,0.0034 2.45241,0.592186 2.80727,1.136131 0.36061,0.552754 0.69472,3.205526 1.07303,8.519687 0.0932,1.30969 0.33905,3.21469 0.54625,4.23334 0.2072,1.01864 0.37683,1.872 0.37694,1.89634 0.001,0.26906 -2.51405,0.90576 -3.04845,0.77163 -0.80045,-0.2009 -1.44925,-1.49725 -1.44925,-2.89575 0,-1.09545 -0.27056,-1.22743 -2.51628,-1.22743 -1.18638,0 -1.80347,0.12422 -2.10249,0.42324 -0.55131,0.55131 -1.20206,2.12166 -1.20206,2.90075 0,0.33744 -0.13024,0.69402 -0.28942,0.7924 -0.15919,0.0984 -2.26662,0.23476 -4.68319,0.30307 -3.87666,0.10957 -4.4315,0.0726 -4.71443,-0.31436 -0.29782,-0.4073 -0.38361,-0.40537 -1.203795,0.027 -0.591081,0.31157 -1.670584,0.4994 -3.264373,0.56798 -2.199338,0.0946 -2.492418,0.0453 -3.836458,-0.64514 z m 14.509026,-4.9414 c -0.2866,-0.2693 -0.56101,-0.44789 -0.6098,-0.39688 -0.0488,0.051 -0.16377,0.92619 -0.25553,1.94484 l -0.16683,1.85208 0.77663,-1.45521 c 0.77075,-1.44421 0.77268,-1.45891 0.25553,-1.94483 z m -3.9769,-3.21454 c 0.30424,-1.600734 0.63382,-3.605278 0.73239,-4.454546 0.1759,-1.515449 0.16756,-1.542473 -0.44933,-1.455208 -0.55058,0.07789 -0.61805,0.209686 -0.54383,1.062439 0.11496,1.321005 -0.63325,2.069185 -2.06927,2.069185 -0.717318,0 -1.058336,-0.116256 -1.058336,-0.360796 0,-0.198437 -0.313892,-0.674687 -0.697538,-1.058333 -0.934692,-0.934692 -2.768995,-0.993968 -3.388501,-0.1095 -0.226533,0.323421 -0.411878,0.731005 -0.411878,0.905742 0,0.634363 1.416222,1.976955 3.159081,2.994837 1.748842,1.02138 3.720082,2.87736 3.720082,3.50256 0,0.19512 0.0872,0.22023 0.22698,0.0654 0.12483,-0.13825 0.4759,-1.56105 0.78015,-3.16177 z m 13.15591,2.44427 c 0.0826,-0.32913 0.11464,-1.46836 0.0712,-2.53162 l -0.079,-1.933204 -1.65364,2.235004 c -0.90951,1.22925 -1.65365,2.3021 -1.65365,2.38412 0,0.082 0.50602,0.1947 1.12448,0.2504 0.61846,0.0557 1.33057,0.12209 1.58246,0.14751 0.27706,0.028 0.51731,-0.19017 0.60818,-0.55221 z"
         id="path7" /><path
         style="fill:#f0c9db"
         d="m 93.418777,109.3582 c -2.18341,-0.65744 -3.646231,-2.43396 -3.127533,-3.79824 0.349701,-0.91978 1.29388,-1.49456 2.455084,-1.49456 0.883624,0 0.999462,0.075 0.999462,0.6467 0,1.04536 1.047522,2.0437 2.178002,2.07574 1.04754,0.0297 2.056052,-0.64501 2.054343,-1.37439 -0.0023,-0.97922 -1.040966,-2.06765 -2.910771,-3.0502 -4.325612,-2.27305 -5.48807,-4.694914 -3.35447,-6.988706 2.226447,-2.393611 8.063029,-2.794432 10.159756,-0.69771 1.48186,1.481867 0.8706,3.303146 -1.10861,3.303146 -0.75174,0 -0.993299,-0.143206 -1.325652,-0.785907 -0.51075,-0.987682 -1.144746,-1.33076 -2.459196,-1.33076 -1.969559,0 -2.475659,1.637524 -0.944634,3.056431 0.373927,0.346543 1.3237,0.993435 2.110607,1.437536 1.691153,0.95443 3.450185,2.48507 3.676945,3.19953 0.0888,0.27972 0.24521,0.50859 0.34763,0.50859 0.20982,0 1.32995,-5.633845 1.55645,-7.828355 l 0.1478,-1.432065 h -0.83077 c -0.64412,0 -0.83076,-0.11464 -0.83076,-0.510268 0,-0.810236 0.74099,-1.338588 1.93713,-1.381228 4.03131,-0.143709 4.72887,-0.09431 4.96762,0.351798 0.31591,0.590292 0.30827,0.638877 -0.17678,1.123924 -0.25414,0.254143 -0.89699,0.421169 -1.65364,0.429652 -1.20248,0.01348 -1.22085,0.02575 -0.64256,0.429146 0.50014,0.348882 0.59376,0.653323 0.58559,1.904352 -0.005,0.818995 -0.16327,2.282007 -0.35092,3.251134 l -0.3412,1.76206 0.68165,0.13764 c 0.37491,0.0757 0.87294,0.21171 1.10675,0.30222 0.31551,0.12215 0.97285,-0.57217 2.54998,-2.693447 2.65384,-3.569465 4.18972,-5.950661 4.41363,-6.842778 0.16206,-0.645703 0.24195,-0.676987 1.28683,-0.503931 1.49674,0.247894 2.01586,0.554074 2.32702,1.372481 0.14389,0.378445 0.43961,2.901284 0.65717,5.606309 0.35248,4.382676 0.59618,6.229636 1.07223,8.126356 0.12374,0.49305 -0.0404,0.63254 -1.19575,1.01629 -2.16119,0.71783 -2.85866,0.20005 -3.17036,-2.35358 l -0.16377,-1.34167 h -2.24896 -2.24895 l -0.59532,1.18054 c -0.32742,0.6493 -0.59531,1.49976 -0.59531,1.88992 0,0.41951 -0.18115,0.7789 -0.4433,0.87949 -0.24382,0.0936 -2.37533,0.23555 -4.73669,0.31553 -3.66459,0.12411 -4.32626,0.0867 -4.51788,-0.25575 -0.19809,-0.35397 -0.39566,-0.34208 -1.679462,0.10102 -1.518031,0.52395 -4.306578,0.65101 -5.618431,0.25601 z m 13.492393,-5.49389 -0.59767,-0.63709 -0.18319,1.0144 c -0.10075,0.55792 -0.18789,1.49065 -0.19365,2.07274 l -0.0105,1.05833 0.79131,-1.43565 0.79132,-1.43564 z m 9.3242,-2.63373 c 0,-2.949897 0.12524,-2.963425 -2.21485,0.23924 l -1.48664,2.03463 0.99085,0.1037 c 0.54497,0.057 1.37781,0.12372 1.85075,0.14819 l 0.85989,0.0445 z"
         id="path6" /><path
         style="fill:#e9adcb"
         d="m 93.015642,109.19837 c -3.387126,-1.25103 -3.802021,-4.90702 -0.564764,-4.97661 1.035491,-0.0223 1.13603,0.0373 1.33564,0.7912 0.445928,1.68421 2.219696,2.418 3.469177,1.43516 1.441724,-1.13406 0.549246,-2.72 -2.35595,-4.18654 -2.931778,-1.47995 -4.064371,-2.811223 -4.064371,-4.777327 0,-1.950378 1.850818,-3.426223 5.016673,-4.000302 2.040113,-0.369943 3.790109,-0.161991 5.175233,0.614972 1.85466,1.040341 2.26136,2.89716 0.7822,3.571114 -1.1789,0.53714 -1.924603,0.38745 -2.371092,-0.475964 -0.51075,-0.987682 -1.144746,-1.33076 -2.459196,-1.33076 -1.669309,0 -2.418338,1.273862 -1.510851,2.569481 0.219798,0.313807 1.142533,1.015845 2.050521,1.560085 2.287711,1.371231 3.548768,2.389241 4.085758,3.298281 0.25154,0.42583 0.52867,0.77424 0.61584,0.77424 0.21031,0 1.58511,-7.300469 1.58196,-8.400524 -0.002,-0.778504 -0.0776,-0.859896 -0.79621,-0.859896 -0.59514,0 -0.79375,-0.122149 -0.79375,-0.48816 0,-1.051281 0.77212,-1.3295 3.83984,-1.383605 2.80646,-0.0495 2.91002,-0.03123 2.99349,0.527935 0.14118,0.945804 -0.41715,1.342807 -1.90479,1.354423 -1.35322,0.01057 -1.35482,0.01159 -0.62906,0.405325 0.66499,0.360768 0.7268,0.524909 0.71831,1.907636 -0.005,0.832097 -0.17953,2.286811 -0.38758,3.232696 -0.47418,2.15575 -0.47924,2.00229 0.0661,2.00881 0.25466,0.003 0.77843,0.0873 1.16393,0.18732 0.65319,0.16942 0.87368,-0.0478 3.23817,-3.189977 1.39549,-1.854478 2.92555,-4.17873 3.40013,-5.165005 0.85214,-1.77092 0.87392,-1.791276 1.75102,-1.636358 1.5112,0.266919 2.15404,0.615629 2.41884,1.312121 0.14014,0.368583 0.43869,2.900796 0.66345,5.627141 0.37864,4.592988 0.65949,6.728668 1.07569,8.180118 0.14585,0.5086 0.007,0.62431 -1.1647,0.97234 -0.73164,0.21727 -1.56887,0.33264 -1.86053,0.25637 -0.70353,-0.18398 -1.35944,-1.62216 -1.35944,-2.98077 v -1.0948 l -2.3075,0.0765 -2.30751,0.0764 -0.59856,1.05833 c -0.3292,0.58209 -0.60051,1.43727 -0.60291,1.9004 -0.003,0.57221 -0.15273,0.88488 -0.46737,0.97565 -0.25466,0.0735 -2.39779,0.21579 -4.7625,0.31626 -4.36571,0.18549 -4.46303,0.16916 -4.33663,-0.72746 0.014,-0.0995 -0.52766,0.0637 -1.203765,0.36278 -1.649382,0.7296 -5.077498,0.89549 -6.632983,0.32097 z m 13.826248,-3.38631 0.67133,-1.2626 -0.63159,-0.7506 -0.63159,-0.7506 -0.16441,1.36846 c -0.19718,1.6413 -0.21709,2.95996 -0.042,2.78491 0.0698,-0.0698 0.42906,-0.69514 0.7983,-1.38957 z m 9.39348,-4.70539 v -2.69415 l -1.82679,2.49571 -1.82679,2.49571 0.83461,0.16361 c 0.45903,0.09 1.28108,0.17928 1.82679,0.19843 l 0.99218,0.0348 z"
         id="path5" /><path
         style="fill:#e28db8"
         d="m 93.358415,109.25044 c -1.725293,-0.48538 -3.052208,-1.87684 -3.052208,-3.20067 0,-0.7696 0.151216,-1.02602 0.859896,-1.45811 1.412365,-0.86113 2.112518,-0.70708 2.718827,0.59822 0.607124,1.30705 1.574997,1.94433 2.572672,1.69393 2.387805,-0.5993 1.883658,-2.88602 -0.951976,-4.31798 -3.432203,-1.73323 -4.667549,-3.077245 -4.669263,-5.079998 -8.44e-4,-0.985662 0.146664,-1.303261 1.003038,-2.159635 2.402066,-2.402065 8.590949,-2.594407 10.378009,-0.322534 0.69632,0.885226 0.66105,1.540617 -0.12522,2.326885 -0.91735,0.917352 -2.122349,0.880803 -2.577275,-0.07817 -0.189841,-0.400183 -0.790942,-0.945431 -1.33578,-1.211664 -0.825085,-0.403174 -1.141705,-0.434194 -1.894832,-0.18564 -1.348026,0.444889 -1.615317,1.545383 -0.667888,2.749843 0.301239,0.382963 1.402567,1.191388 2.447396,1.796493 1.984169,1.14913 3.884059,2.88212 3.884059,3.54284 0,0.21215 0.097,0.38573 0.21554,0.38573 0.26591,0 1.6424,-7.166112 1.63901,-8.532811 -0.002,-0.925494 -0.0558,-0.992187 -0.79621,-0.992187 -0.94293,0 -1.05036,-0.537142 -0.26459,-1.322917 0.46503,-0.465025 0.88195,-0.529167 3.43959,-0.529167 h 2.91041 v 0.65215 c 0,0.81473 -0.68536,1.199934 -2.13495,1.199934 h -1.11141 l 0.69714,0.54837 c 0.57901,0.455446 0.69557,0.758083 0.68785,1.785938 -0.005,0.680662 -0.17953,2.011473 -0.38758,2.95736 -0.48578,2.20848 -0.48416,2.26465 0.0661,2.28485 0.25466,0.009 0.78338,0.10552 1.17493,0.21373 0.67162,0.1856 0.85555,0.004 3.25037,-3.201443 1.39615,-1.868999 2.92126,-4.194799 3.38913,-5.168444 0.8462,-1.760955 0.85555,-1.769464 1.77672,-1.618284 1.55346,0.254948 2.29375,0.768358 2.485,1.723405 0.096,0.479266 0.35158,3.053477 0.568,5.720466 0.34633,4.26781 0.62242,6.28422 1.05861,7.73132 0.14558,0.483 -1.18383,1.04565 -2.47065,1.04565 -1.06645,0 -1.67588,-0.87787 -1.8472,-2.66088 l -0.12567,-1.30787 h -2.30236 -2.30236 l -0.59974,1.28047 c -0.48421,1.0338 -0.68134,1.82539 -0.68134,2.73594 0,0.0264 -2.11357,0.1158 -4.69682,0.19862 -4.43298,0.14213 -4.6968,0.12334 -4.69636,-0.33448 2.6e-4,-0.26679 -0.0888,-0.4391 -0.19797,-0.38292 -2.238413,1.15223 -5.151606,1.50728 -7.332685,0.89366 z m 8.854045,-2.30586 c 0,-0.14552 -0.11907,-0.19099 -0.26459,-0.10106 -0.14552,0.0899 -0.26458,0.28259 -0.26458,0.42811 0,0.14552 0.11906,0.191 0.26458,0.10106 0.14552,-0.0899 0.26459,-0.28259 0.26459,-0.42811 z m 4.60044,-1.01834 0.68716,-1.31417 -0.6253,-0.92142 -0.62529,-0.92143 -0.16642,1.21419 c -0.18612,1.35785 -0.22219,3.25699 -0.0619,3.25699 0.0575,0 0.41378,-0.59138 0.79171,-1.31416 z m 9.42247,-4.82993 v -2.704502 l -1.84622,2.506062 -1.84623,2.50607 0.72175,0.16713 c 0.39696,0.0919 1.22776,0.18122 1.84623,0.19844 l 1.12447,0.0313 z"
         id="path4" /><path
         style="fill:#da70a8"
         d="m 94.010374,109.38877 c -3.533575,-0.76961 -5.07774,-4.07914 -2.347353,-5.03096 1.410356,-0.49165 1.707962,-0.38074 2.051048,0.76438 0.215811,0.72031 0.561933,1.18365 1.087075,1.45521 2.343256,1.21174 4.181536,-0.74958 2.535753,-2.70548 -0.353224,-0.41978 -1.616658,-1.28771 -2.80763,-1.92872 -2.475919,-1.3326 -3.439749,-2.406573 -3.617656,-4.031054 -0.264718,-2.417151 2.007104,-4.124745 5.796453,-4.356853 2.490189,-0.15253 4.115146,0.185747 5.093336,1.060311 1.41748,1.26731 0.93539,2.984474 -0.91186,3.24799 -0.82411,0.117562 -0.984789,0.03674 -1.459774,-0.734275 -1.452539,-2.357822 -5.075219,-1.683326 -4.20771,0.783421 0.253818,0.721728 1.259245,1.543394 4.073139,3.32869 1.077215,0.68345 1.826315,1.40577 2.305025,2.22263 l 0.70918,1.21013 0.73316,-3.67783 c 0.40324,-2.022813 0.73861,-4.235477 0.74528,-4.917035 0.0112,-1.149518 -0.0391,-1.245255 -0.69508,-1.322917 -0.91564,-0.108396 -1.05169,-0.573795 -0.36767,-1.257808 0.48507,-0.48507 0.86908,-0.545704 3.45612,-0.545704 h 2.91041 v 0.65215 c 0,0.81473 -0.68536,1.199934 -2.13495,1.199934 h -1.11141 l 0.69714,0.54837 c 0.89715,0.7057 0.90196,1.661015 0.0305,6.06621 -0.64388,3.25485 -0.84728,5.83448 -0.45785,5.80666 0.10914,-0.008 0.50427,-0.65819 0.87807,-1.44531 0.52887,-1.11366 0.60083,-1.46137 0.32438,-1.56746 -0.4106,-0.15756 -0.8541,-1.20206 -0.69178,-1.62921 0.0791,-0.20807 0.40479,-0.21196 1.14752,-0.0137 0.57041,0.15225 1.0811,0.22346 1.13485,0.15824 0.0538,-0.0652 1.11274,-1.4878 2.35329,-3.16129 2.60823,-3.518472 3.80489,-5.40446 4.04709,-6.378398 0.16207,-0.651698 0.2327,-0.678349 1.27683,-0.481819 2.36228,0.444636 2.41557,0.559174 2.82226,6.066467 0.33522,4.53934 0.73357,7.73738 1.07594,8.6379 0.22227,0.5846 0.15446,0.68935 -0.66898,1.0334 -2.18946,0.91482 -3.19592,0.27227 -3.49222,-2.2295 l -0.16064,-1.35638 h -2.3208 -2.32079 l -0.53725,1.12448 c -0.29548,0.61846 -0.62209,1.48166 -0.7258,1.91823 -0.1037,0.43656 -0.3085,0.87218 -0.4551,0.96804 -0.1466,0.0959 -2.21186,0.18654 -4.58947,0.20149 -3.69287,0.0232 -4.32292,-0.0311 -4.32292,-0.37273 0,-0.49996 0.0357,-0.50299 -1.363469,0.11592 -1.319243,0.58356 -4.12948,0.87611 -5.515697,0.57419 z m 8.202086,-2.29628 c 0,-0.22687 -0.11907,-0.3389 -0.26459,-0.24897 -0.14552,0.0899 -0.26458,0.27556 -0.26458,0.41249 0,0.13693 0.11906,0.24897 0.26458,0.24897 0.14552,0 0.26459,-0.18562 0.26459,-0.41249 z m 14.02291,-5.98161 c 0,-1.479459 -0.0677,-2.622237 -0.15042,-2.539503 -0.0827,0.08273 -0.91662,1.202192 -1.85307,2.487683 -1.91509,2.62888 -1.90141,2.68948 0.61443,2.72316 l 1.38906,0.0186 z"
         id="path3" /><path
         style="fill:#d24e94"
         d="m 94.397019,109.36218 c -0.733231,-0.10906 -1.704984,-0.39056 -2.159451,-0.62558 -2.285036,-1.18164 -2.611374,-3.66875 -0.574547,-4.37879 1.408297,-0.49094 1.70811,-0.38025 2.048642,0.75635 0.366773,1.22418 1.148558,1.86165 2.283086,1.86165 2.054008,0 2.682787,-1.87835 1.124479,-3.35916 -0.472943,-0.44942 -1.393015,-1.08433 -2.044606,-1.41092 -2.069381,-1.0372 -3.072488,-1.82495 -3.663972,-2.877357 -1.642451,-2.922348 0.678555,-5.417204 5.369788,-5.772001 3.432542,-0.259603 5.696602,0.797106 5.696602,2.658786 0,1.067784 -0.32027,1.389133 -1.628,1.633488 -0.82798,0.154712 -0.991205,0.102877 -1.138618,-0.361578 -0.279321,-0.880063 -1.677608,-1.888338 -2.618769,-1.888338 -2.089255,0 -2.740252,1.872265 -1.16305,3.344931 0.472943,0.441597 1.440279,1.133509 2.149636,1.537589 1.786951,1.01791 3.347871,2.48477 3.813981,3.58415 l 0.39262,0.92604 0.74219,-3.70417 c 0.40821,-2.03729 0.74911,-4.372264 0.75756,-5.188829 0.0149,-1.44401 -0.003,-1.481202 -0.64609,-1.358218 -0.57052,0.109061 -0.66146,0.03037 -0.66146,-0.572406 0,-0.96999 0.80358,-1.214921 3.98598,-1.214921 2.61051,0 2.6286,0.0044 2.6286,0.645844 0,0.822702 -0.2216,0.948147 -1.99898,1.131589 l -1.45621,0.150294 0.80155,0.487456 c 1.01252,0.615745 1.02784,1.273191 0.13493,5.786901 -0.63874,3.22886 -0.85548,6.10183 -0.45785,6.06906 0.10914,-0.009 0.5114,-0.64975 0.89391,-1.42391 0.67698,-1.37012 0.68226,-1.41889 0.19844,-1.83314 -0.27337,-0.23407 -0.49704,-0.70786 -0.49704,-1.05287 0,-0.6017 0.0428,-0.61586 1.05,-0.34703 0.5775,0.15414 1.09716,0.2269 1.15481,0.16168 1.20511,-1.36344 5.40871,-7.39927 5.93935,-8.528154 l 0.71939,-1.530405 1.13521,0.110052 c 0.62437,0.06053 1.35672,0.31051 1.62745,0.555513 0.60911,0.551236 0.71828,1.160326 1.06952,5.967121 0.32499,4.447393 0.746,7.605333 1.10335,8.276083 0.20735,0.38919 0.0893,0.53836 -0.68019,0.8599 -1.17542,0.49112 -2.37972,0.49871 -2.77908,0.0175 -0.16957,-0.20433 -0.44329,-1.0973 -0.60826,-1.98438 l -0.29995,-1.61287 h -2.34672 -2.34672 l -0.6467,1.38906 c -0.35569,0.76398 -0.64787,1.64421 -0.64929,1.95607 -0.001,0.31185 -0.15141,0.62391 -0.33331,0.69347 -0.1819,0.0695 -2.2655,0.14395 -4.63021,0.16531 -4.12466,0.0373 -4.29948,0.0175 -4.29948,-0.48611 0,-0.51861 -0.0104,-0.5189 -0.8599,-0.0241 -0.774475,0.45109 -1.636626,0.67 -3.638016,0.92375 -0.363802,0.0461 -1.261375,-0.005 -1.994605,-0.11441 z m 7.815441,-2.43046 c 0,-0.3153 -0.0337,-0.52366 -0.0749,-0.46302 -0.0412,0.0606 -0.23435,0.3186 -0.42927,0.57326 -0.30337,0.39634 -0.29259,0.46302 0.0749,0.46302 0.26389,0 0.42927,-0.22086 0.42927,-0.57326 z m 14.13927,-8.640374 c -0.0677,-0.08648 -2.53519,3.185304 -3.39866,4.506394 -0.46114,0.70553 -0.4588,0.71889 0.15015,0.85626 0.34024,0.0768 1.15439,0.17095 1.80924,0.20933 l 1.19062,0.0698 0.15777,-2.77813 c 0.0868,-1.527969 0.12767,-2.816604 0.0909,-2.863634 z"
         id="path2" /><path
         style="fill:#cc3385"
         d="m 93.084332,109.00621 c -1.412416,-0.55269 -1.970702,-0.9719 -2.400042,-1.80215 -0.749932,-1.45021 -0.02273,-2.59329 1.904953,-2.99438 0.782303,-0.16277 0.837407,-0.12118 1.002026,0.75631 0.376506,2.00696 3.043358,2.72476 4.224282,1.137 l 0.550786,-0.74054 -0.524336,-0.95344 c -0.384018,-0.69829 -1.10467,-1.27978 -2.692918,-2.17289 -2.557789,-1.43832 -3.664567,-2.429455 -4.063832,-3.63924 -0.421436,-1.276964 -0.09166,-2.311309 1.072103,-3.362703 1.157348,-1.045595 2.285106,-1.438522 4.763436,-1.659654 3.11411,-0.277859 5.55625,0.908819 5.55625,2.699876 0,1.005281 -0.54124,1.440998 -1.78998,1.440998 -0.55349,0 -0.868148,-0.190054 -1.132517,-0.684031 -1.061204,-1.982879 -4.551982,-1.804226 -4.551982,0.232964 0,1.121867 0.640406,1.816835 2.917987,3.1666 2.264382,1.34194 3.643532,2.68438 4.098452,3.98936 0.2533,0.72662 0.34757,0.45321 1.00857,-2.92514 0.65803,-3.363163 0.86853,-5.085461 0.79692,-6.520416 -0.0194,-0.38916 -0.16248,-0.457081 -0.68599,-0.325688 -0.53141,0.133374 -0.66146,0.06735 -0.66146,-0.335795 0,-0.927655 0.74084,-1.207234 3.49176,-1.317726 2.78954,-0.112042 3.29612,0.05288 3.00265,0.977536 -0.13937,0.439107 -0.47841,0.578847 -1.75476,0.723249 -1.53361,0.173508 -1.56353,0.191604 -0.97801,0.591511 0.33219,0.22689 0.698,0.538492 0.81291,0.692447 0.25012,0.335124 0.074,1.999996 -0.58924,5.571592 -0.78585,4.23151 -0.91074,5.68854 -0.48759,5.68854 0.19844,0 0.67609,-0.64288 1.06145,-1.42861 0.69133,-1.4096 0.69383,-1.43479 0.18741,-1.89309 -0.28229,-0.25547 -0.51325,-0.69362 -0.51325,-0.97367 0,-0.43547 0.12449,-0.48279 0.8599,-0.32687 0.47294,0.10027 0.9526,0.19903 1.06592,0.21946 0.38642,0.0697 5.22585,-6.571961 6.08311,-8.348478 0.94207,-1.952286 1.29452,-2.1216 2.96419,-1.423967 1.15852,0.484059 1.33019,1.14147 1.72939,6.622578 0.29715,4.080057 0.54243,6.091077 0.9294,7.620167 0.16552,0.65403 0.0872,0.76963 -0.76209,1.12447 -1.21073,0.50588 -1.87926,0.50034 -2.39948,-0.0199 -0.41595,-0.41595 -0.51626,-0.73195 -0.80509,-2.53614 -0.15265,-0.95355 -0.17414,-0.96845 -1.52851,-1.05979 -0.75553,-0.051 -1.8356,-0.0486 -2.40017,0.005 -0.94536,0.0902 -1.07647,0.20526 -1.65914,1.45666 -0.34797,0.74732 -0.63384,1.6172 -0.63526,1.93306 -0.003,0.73971 -0.42836,0.8083 -5.38109,0.86838 l -3.92331,0.0476 0.0868,-0.61283 c 0.0478,-0.33706 0.35473,-0.73036 0.68215,-0.87401 0.32743,-0.14365 0.59532,-0.45066 0.59532,-0.68225 0,-0.28154 -0.37571,-0.0611 -1.13379,0.66529 -0.62359,0.5975 -1.619668,1.23193 -2.213513,1.40985 -1.345473,0.40312 -4.721562,0.38713 -5.780825,-0.0274 z m 23.266578,-7.74368 c 0.16509,-2.46453 0.1026,-3.36925 -0.20694,-2.995918 -0.8573,1.033983 -3.61276,5.021068 -3.61276,5.227578 0,0.15412 0.68461,0.32318 1.52135,0.37568 0.83675,0.0525 1.65394,0.11798 1.81598,0.1455 0.19152,0.0325 0.36032,-0.93081 0.48237,-2.75284 z"
         id="path1" /></g></g></svg>
